<svg xmlns="http://www.w3.org/2000/svg" width="136.495" height="136.495" viewBox="0 0 136.495 136.495">
  <g id="Group_15" data-name="Group 15" transform="translate(-304 -897)">
    <g id="Ellipse_1" data-name="Ellipse 1" transform="translate(304 897)" fill="none" stroke="#11778f" stroke-width="3">
      <ellipse cx="68.248" cy="68.248" rx="68.248" ry="68.248" stroke="none"/>
      <ellipse cx="68.248" cy="68.248" rx="66.748" ry="66.748" fill="none"/>
    </g>
    <g id="first-aid-kit_1_" data-name="first-aid-kit (1)" transform="translate(340 937)">
      <g id="Group_1" data-name="Group 1" transform="translate(1.063 1.063)">
        <path id="Path_1" data-name="Path 1" d="M67.541,80H10.126A2.133,2.133,0,0,0,8,82.126v36.15a2.133,2.133,0,0,0,2.126,2.126H67.541a2.133,2.133,0,0,0,2.126-2.126V82.126A2.133,2.133,0,0,0,67.541,80ZM38.834,116.15A15.948,15.948,0,1,1,54.782,100.2,15.949,15.949,0,0,1,38.834,116.15Zm0,0" transform="translate(-8 -70.431)" fill="#9bc9ff"/>
        <path id="Path_2" data-name="Path 2" d="M40,386.126a2.127,2.127,0,0,0,2.126,2.126h4.253a2.127,2.127,0,0,0,2.126-2.126V384H40Zm0,0" transform="translate(-35.747 -334.028)" fill="#9bc9ff"/>
        <path id="Path_3" data-name="Path 3" d="M54.379,57.839A1.847,1.847,0,0,0,52.54,56h-2.7A1.847,1.847,0,0,0,48,57.839v1.35h6.379Zm0,0" transform="translate(-42.684 -49.621)" fill="#9bc9ff"/>
        <path id="Path_4" data-name="Path 4" d="M390.379,57.839A1.847,1.847,0,0,0,388.54,56h-2.7A1.847,1.847,0,0,0,384,57.839v1.35h6.379Zm0,0" transform="translate(-334.028 -49.621)" fill="#9bc9ff"/>
        <path id="Path_5" data-name="Path 5" d="M376,386.126a2.127,2.127,0,0,0,2.126,2.126h4.253a2.127,2.127,0,0,0,2.126-2.126V384H376Zm0,0" transform="translate(-327.091 -334.028)" fill="#9bc9ff"/>
        <path id="Path_6" data-name="Path 6" d="M139.19,13.316a2.133,2.133,0,0,1,2.126-2.126h17.012a2.133,2.133,0,0,1,2.126,2.126v4.253h3.19V12.253A4.253,4.253,0,0,0,159.391,8H140.253A4.253,4.253,0,0,0,136,12.253v5.316h3.19Zm0,0" transform="translate(-118.988 -8)" fill="#9bc9ff"/>
        <path id="Path_7" data-name="Path 7" d="M186.632,168h-4.253v6.379H176v4.253h6.379v6.379h4.253v-6.379h6.379v-4.253h-6.379Zm0,0" transform="translate(-153.672 -146.735)" fill="#9bc9ff"/>
      </g>
      <path id="Path_8" data-name="Path 8" d="M60.6,9.569H58.478V9.282a2.907,2.907,0,0,0-2.9-2.9h-2.7a2.907,2.907,0,0,0-2.9,2.9v.287h-3.19V5.316A5.322,5.322,0,0,0,41.466,0H22.328a5.322,5.322,0,0,0-5.316,5.316V9.569h-3.19V9.282a2.907,2.907,0,0,0-2.9-2.9h-2.7a2.907,2.907,0,0,0-2.9,2.9v.287H3.19A3.19,3.19,0,0,0,0,12.759v36.15A3.19,3.19,0,0,0,3.19,52.1H4.253v1.063a3.19,3.19,0,0,0,3.19,3.19H11.7a3.19,3.19,0,0,0,3.19-3.19V52.1H48.909v1.063a3.19,3.19,0,0,0,3.19,3.19h4.253a3.19,3.19,0,0,0,3.19-3.19V52.1H60.6a3.19,3.19,0,0,0,3.19-3.19V12.759a3.19,3.19,0,0,0-3.19-3.19ZM52.1,9.282a.787.787,0,0,1,.776-.776h2.7a.787.787,0,0,1,.776.776v.287H52.1ZM19.138,5.316a3.19,3.19,0,0,1,3.19-3.19H41.466a3.19,3.19,0,0,1,3.19,3.19V9.569H43.593V6.379A3.19,3.19,0,0,0,40.4,3.19H23.391a3.19,3.19,0,0,0-3.19,3.19v3.19H19.138ZM41.466,9.569H22.328V6.379a1.063,1.063,0,0,1,1.063-1.063H40.4a1.063,1.063,0,0,1,1.063,1.063ZM7.443,9.282a.787.787,0,0,1,.776-.776h2.7a.787.787,0,0,1,.776.776v.287H7.443Zm5.316,43.88A1.063,1.063,0,0,1,11.7,54.225H7.443A1.063,1.063,0,0,1,6.38,53.161V52.1h6.379Zm44.656,0a1.063,1.063,0,0,1-1.063,1.063H52.1a1.063,1.063,0,0,1-1.063-1.063V52.1h6.379Zm4.253-4.253A1.063,1.063,0,0,1,60.6,49.972H3.19a1.063,1.063,0,0,1-1.063-1.063V12.759A1.063,1.063,0,0,1,3.19,11.7H60.6a1.063,1.063,0,0,1,1.063,1.063Zm0,0" transform="translate(0)" fill="#11778f"/>
      <path id="Path_9" data-name="Path 9" d="M129.012,104a17.012,17.012,0,1,0,17.012,17.012A17.012,17.012,0,0,0,129.012,104Zm0,31.9A14.885,14.885,0,1,1,143.9,121.012,14.885,14.885,0,0,1,129.012,135.9Zm0,0" transform="translate(-97.115 -90.178)" fill="#11778f"/>
      <path id="Path_10" data-name="Path 10" d="M180.759,160h-6.379v6.379H168v6.379h6.379v6.379h6.379v-6.379h6.379v-6.379h-6.379Zm4.253,8.506v2.126h-6.379v6.379h-2.126v-6.379h-6.379v-2.126h6.379v-6.379h2.126v6.379Zm0,0" transform="translate(-145.672 -138.735)" fill="#11778f"/>
    </g>
  </g>
</svg>
