<svg xmlns="http://www.w3.org/2000/svg" width="136.495" height="136.495" viewBox="0 0 136.495 136.495">
  <g id="Group_14" data-name="Group 14" transform="translate(-650 -897)">
    <g id="Ellipse_2" data-name="Ellipse 2" transform="translate(650 897)" fill="none" stroke="#11778f" stroke-width="3">
      <ellipse cx="68.248" cy="68.248" rx="68.248" ry="68.248" stroke="none"/>
      <ellipse cx="68.248" cy="68.248" rx="66.748" ry="66.748" fill="none"/>
    </g>
    <g id="conversation" transform="translate(684 931)">
      <path id="Path_11" data-name="Path 11" d="M46.564,184H17.949A7.949,7.949,0,0,0,10,191.949v20.4a7.949,7.949,0,0,0,7.949,7.949h8.608l-.119.01,5.819,5.819,0-5.829h14.3a7.949,7.949,0,0,0,7.949-7.949v-20.4A7.949,7.949,0,0,0,46.564,184Z" transform="translate(-8.675 -159.624)" fill="#11778f"/>
      <path id="Path_12" data-name="Path 12" d="M23.581,218.777a1.324,1.324,0,0,1-.937-.388L17.2,212.948H9.273A9.284,9.284,0,0,1,0,203.675v-20.4A9.284,9.284,0,0,1,9.273,174h13.38a1.325,1.325,0,0,1,0,2.65H9.273a6.631,6.631,0,0,0-6.624,6.624v20.4A6.631,6.631,0,0,0,9.273,210.3h8.608a1.325,1.325,0,0,1,1.215.8l3.162,3.162,0-2.634a1.325,1.325,0,0,1,1.325-1.324h14.3a6.631,6.631,0,0,0,6.624-6.624v-9.141a1.325,1.325,0,1,1,2.65,0v9.141a9.284,9.284,0,0,1-9.273,9.273H24.909l0,4.505a1.325,1.325,0,0,1-1.325,1.324Z" transform="translate(0 -150.949)"/>
      <path id="Path_13" data-name="Path 13" d="M227.283,10H223.93A17.93,17.93,0,0,0,206,27.93h0a17.93,17.93,0,0,0,17.93,17.93h3.353a17.926,17.926,0,0,0,5.273-.789l5.5,5.5V42.261a17.9,17.9,0,0,0,7.154-14.331h0A17.93,17.93,0,0,0,227.283,10Z" transform="translate(-178.71 -8.675)" fill="#9bc9ff"/>
      <path id="Path_14" data-name="Path 14" d="M229.384,43.221a1.325,1.325,0,0,1-.937-.388l-4.953-4.95a19.292,19.292,0,0,1-4.887.626h-3.353a19.255,19.255,0,0,1,0-38.51h3.353a19.277,19.277,0,0,1,19.255,19.255,19.048,19.048,0,0,1-2.092,8.737,19.439,19.439,0,0,1-5.061,6.24V41.9a1.325,1.325,0,0,1-1.325,1.325Zm-5.5-8.15a1.325,1.325,0,0,1,.937.388l3.242,3.24V33.586a1.325,1.325,0,0,1,.528-1.058A16.606,16.606,0,0,0,218.608,2.65h-3.353a16.605,16.605,0,0,0,0,33.211h3.353a16.61,16.61,0,0,0,4.884-.73A1.323,1.323,0,0,1,223.881,35.072Z" transform="translate(-170.034)"/>
      <path id="Path_15" data-name="Path 15" d="M320.071,85.525a1.325,1.325,0,0,1-1.325-1.325V81.017a2.507,2.507,0,0,1,1.975-2.457,2.96,2.96,0,1,0-3.609-2.888,1.325,1.325,0,0,1-2.65,0,5.629,5.629,0,0,1,1.782-4.1,5.566,5.566,0,0,1,4.221-1.494,5.609,5.609,0,0,1,.93,11.046V84.2A1.325,1.325,0,0,1,320.071,85.525Z" transform="translate(-272.803 -60.781)"/>
      <path id="Path_16" data-name="Path 16" d="M348.125,208.98a1.323,1.323,0,1,1,.937-.387A1.333,1.333,0,0,1,348.125,208.98Z" transform="translate(-300.857 -178.996)"/>
      <path id="Path_17" data-name="Path 17" d="M83.277,312.65H55.325a1.325,1.325,0,0,1,0-2.65H83.277a1.325,1.325,0,0,1,0,2.65Z" transform="translate(-46.846 -268.932)"/>
      <path id="Path_18" data-name="Path 18" d="M266.325,368.65a1.325,1.325,0,1,1,.936-.388A1.335,1.335,0,0,1,266.325,368.65Z" transform="translate(-229.894 -317.513)"/>
      <path id="Path_19" data-name="Path 19" d="M78.067,368.65H55.325a1.325,1.325,0,1,1,0-2.65H78.067a1.325,1.325,0,1,1,0,2.65Z" transform="translate(-46.846 -317.513)"/>
      <path id="Path_20" data-name="Path 20" d="M74.666,256.65H55.325a1.325,1.325,0,1,1,0-2.65H74.666a1.325,1.325,0,1,1,0,2.65Z" transform="translate(-46.846 -220.351)"/>
    </g>
  </g>
</svg>
