<svg xmlns="http://www.w3.org/2000/svg" width="136.495" height="136.495" viewBox="0 0 136.495 136.495">
  <g id="Group_13" data-name="Group 13" transform="translate(-978 -897)">
    <g id="Ellipse_3" data-name="Ellipse 3" transform="translate(978 897)" fill="none" stroke="#11778f" stroke-width="3">
      <ellipse cx="68.248" cy="68.248" rx="68.248" ry="68.248" stroke="none"/>
      <ellipse cx="68.248" cy="68.248" rx="66.748" ry="66.748" fill="none"/>
    </g>
    <g id="warning" transform="translate(1013 932)">
      <path id="Path_21" data-name="Path 21" d="M109.332,566.406v11.019H155.6V566.406Zm0,0" transform="translate(-98.91 -512.416)"/>
      <path id="Path_22" data-name="Path 22" d="M184.754,265.906a17.627,17.627,0,0,0-17.625,17.625V294.55h17.625Zm0,0" transform="translate(-151.198 -240.56)" fill="#11778f"/>
      <path id="Path_23" data-name="Path 23" d="M369.656,283.531a17.627,17.627,0,0,0-17.625-17.625v4.4a13.234,13.234,0,0,1,13.221,13.221,13.234,13.234,0,0,0-13.221-13.221v24.24h17.625Zm0,0" transform="translate(-318.475 -240.56)" fill="#9bc9ff"/>
      <path id="Path_24" data-name="Path 24" d="M341.536,19.844a1.106,1.106,0,0,1-1.106-1.105V1.113a1.106,1.106,0,0,1,2.211,0V18.738A1.106,1.106,0,0,1,341.536,19.844Zm0,0" transform="translate(-307.98 -0.008)" fill="#11778f"/>
      <path id="Path_25" data-name="Path 25" d="M153.871,70.1a1.093,1.093,0,0,1-.953-.553L144.1,54.282a1.1,1.1,0,0,1,1.9-1.116l.01.01,8.817,15.27a1.1,1.1,0,0,1-.4,1.506A1.139,1.139,0,0,1,153.871,70.1Zm0,0" transform="translate(-130.228 -47.61)" fill="#11778f"/>
      <path id="Path_26" data-name="Path 26" d="M16.38,207.478a1.139,1.139,0,0,1-.553-.143L.557,198.518a1.1,1.1,0,1,1,1.1-1.916l.009.009,15.27,8.817a1.1,1.1,0,0,1,.4,1.506A1.117,1.117,0,0,1,16.38,207.478Zm0,0" transform="translate(-0.001 -177.729)" fill="#11778f"/>
      <path id="Path_27" data-name="Path 27" d="M521.735,207.451a1.1,1.1,0,0,1-.553-2.059l15.27-8.817a1.1,1.1,0,1,1,1.116,1.9l-.01.01-15.27,8.826A1.139,1.139,0,0,1,521.735,207.451Zm0,0" transform="translate(-471.002 -177.702)" fill="#11778f"/>
      <path id="Path_28" data-name="Path 28" d="M445.626,70.055a1.092,1.092,0,0,1-1.1-1.106,1.136,1.136,0,0,1,.143-.553l8.817-15.271a1.1,1.1,0,0,1,1.906,1.106L446.579,69.5A1.063,1.063,0,0,1,445.626,70.055Zm0,0" transform="translate(-402.157 -47.569)" fill="#11778f"/>
      <path id="Path_29" data-name="Path 29" d="M354.668,315.848a1.107,1.107,0,0,1-1.106-1.106,12.143,12.143,0,0,0-12.125-12.125,1.106,1.106,0,0,1,0-2.211,14.34,14.34,0,0,1,14.327,14.327A1.094,1.094,0,0,1,354.668,315.848Zm0,0" transform="translate(-307.891 -271.772)" fill="#e6e7e8"/>
    </g>
  </g>
</svg>
