<?xml version="1.0" encoding="UTF-8" standalone="no"?>
<svg width="62px" height="59px" viewBox="0 0 62 59" version="1.1" xmlns="http://www.w3.org/2000/svg" xmlns:xlink="http://www.w3.org/1999/xlink">
    <!-- Generator: Sketch 49.1 (51147) - http://www.bohemiancoding.com/sketch -->
    <title>doctor</title>
    <desc>Created with Sketch.</desc>
    <defs></defs>
    <g id="Page-1" stroke="none" stroke-width="1" fill="none" fill-rule="evenodd">
        <g id="Artboard-Copy" transform="translate(-610.000000, -668.000000)" fill-rule="nonzero">
            <g id="doctor" transform="translate(610.000000, 668.000000)">
                <path d="M38.9612536,16 L38.9612536,16.2409349 C38.9612536,18.6439074 37.2570592,20.6556322 35,21.11661 C35.2188255,22.3861305 35.9188781,23.5237881 37.0152989,24.2414375 C38.3401238,25.1094 39.9925124,25.2394994 41.432956,24.5956498 L45,23.0036618 L41.0052885,17.0677918 C40.5309418,16.3604527 39.7604657,16.016822 38.9729908,16 L38.9612536,16 Z" id="XMLID_57_" fill="#2CBFE3"></path>
                <path d="M26.4894632,28.3904203 L25.0006772,35.5403859 L31.0427597,39 L42.2842424,35.9323236 C42.5195176,35.8688445 42.7596943,35.8339441 43,35.7948294 L41.7325583,29.7008303 L41.0108673,26.235158 C40.4892375,26.3768667 39.9603844,26.4740609 39.4286935,26.4740609 C38.2599281,26.4740609 37.0998049,26.1315105 36.0845359,25.458131 C34.5566663,24.4441766 33.6138888,22.8051764 33.3879009,20.9910158 C31.1362764,20.6204134 29.4074426,18.6385994 29.4074426,16.2370591 L29.4074426,16 L29.0665259,16 C28.2373873,16.0185696 27.4353364,16.4364521 27.0051595,17.2316537 L19,32.1044778 L23.1966431,34.5068083 L26.4894632,28.3904203 Z" id="XMLID_56_" fill="#2CBFE3"></path>
                <path d="M37,16.0018964 L35.6643709,16.0009482 L31,16 L31,16.2123978 C31,17.7493185 32.345705,19 34.0004464,19 C35.654295,19 37,17.7493185 37,16.2123978 L37,16.0018964 Z" id="XMLID_55_" fill="#2CBFE3"></path>
                <path d="M58.766451,41.8993251 L45.8867469,37.6113747 C44.9992304,37.3153286 44.0385877,37.2833271 43.1286009,37.5228924 L30.8745615,40.7359227 L16.0912365,32.6000112 C13.7975657,31.3332095 10.8947258,32.1388576 9.60936611,34.3904395 C8.32296733,36.641639 9.13982536,39.4890104 11.4332364,40.7518598 L27.9049597,49.8177282 C28.9870466,50.4139002 30.2643533,50.5739079 31.4626888,50.255805 L44.1935427,46.9166809 L55.708786,50.750745 C56.214825,50.9196774 56.7309951,51 57.238203,51 C59.221964,51 61.0732404,49.7729771 61.7463138,47.8258559 C62.5913572,45.3816273 61.2562509,42.7289425 58.766451,41.8993251 Z" id="XMLID_54_" fill="#2CBFE3"></path>
                <path d="M7.50111782,33 C7.90892462,33 8.30450117,32.9475295 8.68666388,32.8634978 C10.0947217,32.553146 11.3001255,31.7096728 12.0757607,30.548615 C12.6576843,29.6755532 13,28.6281158 13,27.5008548 C13,24.4615109 10.5375097,22 7.50111782,22 C4.46262179,22 2,24.4616424 2,27.5008548 C2,30.5373056 4.46249029,33 7.50111782,33 Z" id="XMLID_53_" fill="#3595E3"></path>
                <path d="M58.0276887,52.9803452 L52.6813169,52.9803452 L33.7101108,52.9803452 L27.7622446,52.9803452 L8.80427246,41.9362749 L4.45472581,39.4022573 C3.02831739,38.5719058 1.21436286,39.0684087 0.396584772,40.5110132 C-0.422361013,41.9515155 0.0679425551,43.7911647 1.49045865,44.6204652 L25.4865302,58.598751 C25.9372618,58.8619146 26.4479352,59 26.9685989,59 L58.0276887,59 C59.6697321,59 61,57.6529122 61,55.9901069 C61,55.0788223 60.5916948,54.2722514 59.9597105,53.720304 C59.4390468,53.2649245 58.7698259,52.9803452 58.0276887,52.9803452 Z" id="XMLID_52_" fill="#2CBFE3"></path>
                <path d="M46.40717,22.2370918 C46.5120158,21.397787 47.1662632,20.7422455 47.9930719,20.7422455 C48.8906168,20.7422455 49.6193764,21.5061399 49.6193764,22.4514162 C49.6193764,23.394708 48.8906168,24.1607192 47.9930719,24.1607192 C47.6469425,24.1607192 47.343859,24.0225991 47.0809266,23.828781 L45.4391406,24.5958506 L41.8080547,26.288484 C41.5462551,26.4111251 41.271743,26.482302 41,26.5637982 L42.5134035,28.9166035 C42.9645044,29.6175236 43.7020746,30 44.4583988,30 C44.8476999,30 45.2391408,29.8990559 45.6030171,29.686716 L51.7988586,26.0433339 C52.9307646,25.3794576 53.332904,23.8764087 52.7011864,22.6866438 C52.3578261,22.041157 51.7743149,21.6474352 51.1358006,21.5050815 C50.973938,20.9122497 50.6747563,20.3843767 50.2638064,19.9680318 C49.6734985,19.3710987 48.8760164,19 47.9931977,19 C46.5918143,19 45.4030173,19.9297973 44.9311485,21.2287089 C44.7929485,21.6113176 44.708493,22.0205184 44.708493,22.4514162 C44.708493,22.6412653 44.7340436,22.8237056 44.7624891,23.0052198 L46.40717,22.2370918 Z" id="XMLID_51_" fill="#2CBFE3"></path>
                <path d="M31.6921136,14.1466468 C32.5169716,14.6752943 33.4688959,15 34.499306,15 C35.66347,15 36.7391798,14.6056854 37.6281388,13.942705 C38.3205047,13.4266766 38.8778549,12.7352013 39.288959,11.9389735 C39.727571,11.0899623 40,10.1256148 40,9.08514536 C40,8.34821398 39.859306,7.64927576 39.6292744,7 C37.9517981,7.45469656 36.231041,7.70517996 34.4994322,7.70517996 C32.7697161,7.70517996 31.0482019,7.45456087 29.3687066,7 C29.1395584,7.65036127 29,8.34821398 29,9.08514536 C29,10.3666 29.3872555,11.5466943 30.0314196,12.5141626 C30.4717981,13.1771431 31.0393691,13.7269582 31.6921136,14.1466468 Z" id="XMLID_50_" fill="#2CBFE3"></path>
                <path d="M29.3043863,5.33403366 C31.0062948,5.77801122 32.7528196,6 34.5002523,6 C36.2479445,6 37.9952475,5.77801122 39.6963777,5.33403366 C39.9105106,5.27806374 40.0409876,5.06489905 39.9883299,4.8546337 C39.6861315,3.62972456 39.3808204,1.54522344 39.0775845,0.306447885 C39.0522932,0.201441267 38.9847201,0.111939828 38.8896508,0.0559699141 C38.8250608,0.018656638 38.75217,0 38.6795387,0 C38.6441309,0 38.6076855,0.00390780932 38.5743529,0.0127318949 C37.2381953,0.353593714 35.8688347,0.52352039 34.4992147,0.52352039 C33.1297245,0.52352039 31.7614015,0.353593714 30.4262815,0.0127318949 C30.3919113,0.00390780932 30.3565035,2.23924639e-16 30.3221333,2.23924639e-16 C30.2482049,2.23924639e-16 30.1755736,0.018656638 30.1108538,0.0559699141 C30.0159143,0.111939828 29.9482115,0.201441267 29.9229202,0.305439418 C29.6186467,1.54421497 29.3135949,3.6295985 29.0113966,4.8555161 C28.9597765,5.06489905 29.0880486,5.27806374 29.3043863,5.33403366 Z M33.0640969,2.39989915 L33.7351588,2.39989915 L33.7351588,1.74767317 L35.2634004,1.74767317 L35.2634004,2.39989915 L35.9354999,2.39989915 L35.9354999,3.88612728 L35.2634004,3.88612728 L35.2634004,4.53747085 L33.7351588,4.53747085 L33.7351588,3.88612728 L33.0640969,3.88612728 L33.0640969,2.39989915 Z" id="XMLID_47_" fill="#2CBFE3"></path>
            </g>
        </g>
    </g>
</svg>