<svg xmlns="http://www.w3.org/2000/svg" width="100" height="99.844" viewBox="0 0 100 99.844">
  <g id="Group_17" data-name="Group 17" transform="translate(-674 -2933)">
    <g id="route" transform="translate(674 2933)">
      <path id="Path_30" data-name="Path 30" d="M92.729,54.016H7.272A7.271,7.271,0,0,0,0,61.287v74.751a7.272,7.272,0,0,0,7.272,7.272H92.729A7.272,7.272,0,0,0,100,136.038V61.287a7.271,7.271,0,0,0-7.272-7.272Zm0,0" transform="translate(0 -43.466)" fill="#2cbfe3"/>
      <path id="Path_31" data-name="Path 31" d="M254.4,62.345a39.906,39.906,0,0,0,5.814,15.5,69.114,69.114,0,0,0,10.02,12.37l3.558,3.557,3.556-3.557a69.115,69.115,0,0,0,10.021-12.37,39.9,39.9,0,0,0,5.814-15.5,24.434,24.434,0,0,0-.294-8.33H254.7a24.453,24.453,0,0,0-.294,8.33Zm0,0" transform="translate(-204.536 -43.466)" fill="#11778f"/>
      <path id="Path_32" data-name="Path 32" d="M26.722,171.27h0A19.432,19.432,0,0,0,12.3,177.7c-4.123,4.585-5.84,10.629-4.966,17.48a39.893,39.893,0,0,0,5.814,15.5,69.086,69.086,0,0,0,10.02,12.37l3.557,3.557,3.557-3.557a69.078,69.078,0,0,0,10.02-12.37,39.89,39.89,0,0,0,5.814-15.5c.874-6.852-.843-12.9-4.966-17.48a19.433,19.433,0,0,0-14.426-6.429Zm0,0" transform="translate(-5.72 -137.819)" fill="#2cbfe3"/>
      <path id="Path_33" data-name="Path 33" d="M56.66,110.676h77.867v67.162H56.66Zm0,0" transform="translate(-45.593 -89.06)" fill="#fff"/>
      <path id="Path_37" data-name="Path 37" d="M257.781,110.676a41.776,41.776,0,0,0,5.333,12.763,69.086,69.086,0,0,0,10.021,12.37l3.557,3.557,3.557-3.557a69.106,69.106,0,0,0,10.02-12.37,41.813,41.813,0,0,0,5.333-12.763Zm0,0" transform="translate(-207.433 -89.06)" fill="#a6c6e4"/>
      <path id="Path_38" data-name="Path 38" d="M305.2,4.763a14.368,14.368,0,0,0-21.371,0c-6.95,7.726-3.422,19.234,1.38,26.962a64.654,64.654,0,0,0,9.306,11.468,64.652,64.652,0,0,0,9.3-11.468c4.8-7.728,8.331-19.235,1.381-26.962Zm0,0" transform="translate(-225.252)" fill="#fff"/>
      <path id="Path_39" data-name="Path 39" d="M66.6,171.27h0a19.416,19.416,0,0,0-9.936,2.743v41.87a77.748,77.748,0,0,0,6.379,7.166l3.548,3.548H66.6l3.548-3.548a69.078,69.078,0,0,0,10.02-12.37,39.89,39.89,0,0,0,5.814-15.5c.874-6.852-.843-12.9-4.966-17.48A19.433,19.433,0,0,0,66.6,171.27Zm0,0" transform="translate(-45.593 -137.819)" fill="#2cbfe3"/>
      <path id="Path_40" data-name="Path 40" d="M58.125,201.786a14.368,14.368,0,0,0-21.371,0c-6.95,7.726-3.422,19.234,1.38,26.962a64.685,64.685,0,0,0,9.3,11.468,64.656,64.656,0,0,0,9.306-11.468c4.8-7.728,8.331-19.235,1.381-26.962Zm0,0" transform="translate(-26.437 -158.542)" fill="#11778f"/>
      <path id="Path_41" data-name="Path 41" d="M334.777,47.941a6.355,6.355,0,1,1-6.355-6.355A6.355,6.355,0,0,1,334.777,47.941Zm0,0" transform="translate(-259.163 -33.464)" fill="#11778f"/>
      <path id="Path_42" data-name="Path 42" d="M87.7,244.964a6.355,6.355,0,1,1-6.355-6.355A6.355,6.355,0,0,1,87.7,244.964Zm0,0" transform="translate(-60.345 -192.006)" fill="#b9dcfd"/>
    </g>
  </g>
</svg>
