<svg xmlns="http://www.w3.org/2000/svg" width="117.407" height="99.179" viewBox="0 0 117.407 99.179">
  <g id="Group_18" data-name="Group 18" transform="translate(-1059 -2933)">
    <g id="doctor_1_" data-name="doctor (1)" transform="translate(1059 2893.255)">
      <path id="Path_51" data-name="Path 51" d="M222.507,291.77l-.489,20.546-13.7,9.295-13.453-9.05-.734-20.791s4.4-4.158,3.18-8.316h21.525C218.1,287.612,222.507,291.77,222.507,291.77Z" transform="translate(-149.616 -187.824)" fill="#2cbfe3"/>
      <path id="Path_52" data-name="Path 52" d="M153.457,354.7v-7.093a19.306,19.306,0,0,0-9.539-16.633l-10.028-5.626-10.028-5.626h0L115.055,341l-3.424-14.431,2.446-2.69h-8.806l2.446,2.69L104.293,341l-8.561-21.28L85.7,325.348l-10.028,5.626a19.307,19.307,0,0,0-9.539,16.633V354.7h87.321Z" transform="translate(-50.97 -215.775)" fill="#f2f2f2"/>
      <g id="Group_10" data-name="Group 10" transform="translate(36.051 71.987)">
        <ellipse id="Ellipse_4" data-name="Ellipse 4" cx="4.892" cy="3.424" rx="4.892" ry="3.424" transform="translate(3.732 11.656) rotate(-112.421)" fill="#877955"/>
        <ellipse id="Ellipse_5" data-name="Ellipse 5" cx="4.892" cy="3.424" rx="4.892" ry="3.424" transform="translate(45.102 2.619) rotate(112.421)" fill="#877955"/>
      </g>
      <path id="Path_53" data-name="Path 53" d="M209.8,104.622a17.321,17.321,0,0,1-.245,3.424h0c-1.468,11.5-9.539,30.086-19.323,30.086s-17.856-18.59-19.323-30.33a13.943,13.943,0,0,1-.245-3.18,19.568,19.568,0,0,1,39.136,0Z" transform="translate(-131.53 -34.919)" fill="#e1d0a7"/>
      <path id="Path_54" data-name="Path 54" d="M163.774,76.552c-.489-2.691-.245-6.359,1.468-8.316,0,0-1.468-12.475,7.583-11.741,0,0,7.338,2.446,21.035,0,0,0,5.626-.245,4.647,5.626,0,0-1.468,5.381,1.468,6.6l1.223,7.583,1.223-5.626c2.2-10.273-.245-20.546-9.784-25.194h-.245c1.223-1.712,3.669-.978,3.669-.978-16.143-10.273-26.906-.734-26.906-.734-11.5,10.518-7.827,22.748-7.827,22.748C160.105,70.926,163.774,76.552,163.774,76.552Z" transform="translate(-123.905)" fill="#40596b"/>
      <g id="Group_11" data-name="Group 11" transform="translate(0 57.962)">
        <path id="Path_55" data-name="Path 55" d="M22.748,174.268l10.028-5.626,9.05-5.137v-.245h0a23.219,23.219,0,0,0,2.446-4.158,52.241,52.241,0,0,1-5.626-11.741,9.182,9.182,0,0,1-3.914-4.647,9.469,9.469,0,0,1-.245-6.849c-.978-2.691-1.468-5.137-.978-7.338a27.954,27.954,0,0,1-.245-8.316,14.576,14.576,0,0,0-10.028,3.18c-8.806,8.072-6.115,17.366-6.115,17.366a8.342,8.342,0,0,0,1.223,5.87,3.633,3.633,0,0,0-.245,3.914,3.775,3.775,0,0,0,2.691,2.446,44.287,44.287,0,0,0,4.892,10.273h0c.734,3.18-2.446,6.359-2.446,6.359h0l-7.827,4.4-8.071,4.158A14.391,14.391,0,0,0,0,190.9v2.446H11.252A22.984,22.984,0,0,1,22.748,174.268Z" transform="translate(0 -119.968)" fill="#acb3ba"/>
        <path id="Path_56" data-name="Path 56" d="M355.866,177.4l-7.583-4.4-7.827-4.4h0s-3.18-3.18-2.446-6.359h0a44.287,44.287,0,0,0,4.892-10.273,4.368,4.368,0,0,0,2.691-2.446c.734-1.957.245-3.914-.978-4.4l.489-1.957c1.712-7.827-.245-15.9-7.338-19.323a.758.758,0,0,0-.489-.245,2.7,2.7,0,0,1,2.691-.734,20.333,20.333,0,0,0-11.741-3.669,32.5,32.5,0,0,1-.245,13.7v.489a8.321,8.321,0,0,1,.489,8.316,9.183,9.183,0,0,1-3.914,4.647,52.24,52.24,0,0,1-5.626,11.741,23.22,23.22,0,0,0,2.446,4.158h0v.245l18.834,10.762a22.535,22.535,0,0,1,11.5,19.323h11.5v-2.446A15.216,15.216,0,0,0,355.866,177.4Z" transform="translate(-245.797 -119.188)" fill="#acb3ba"/>
      </g>
      <path id="Path_57" data-name="Path 57" d="M345.275,401.168h-4.647v-4.647h-3.18v4.647H332.8v3.18h4.647V409h3.18v-4.647h4.647Z" transform="translate(-256.485 -274.963)" fill="#11778f"/>
    </g>
  </g>
</svg>
