<svg xmlns="http://www.w3.org/2000/svg" width="120.65" height="93.566" viewBox="0 0 120.65 93.566">
  <g id="Group_19" data-name="Group 19" transform="translate(-1451 -2936)">
    <g id="puzzle" transform="translate(1450.999 2935.5)">
      <path id="Path_58" data-name="Path 58" d="M73.676,53.1a5.49,5.49,0,0,0-5.483-5.483H60.326a3.577,3.577,0,0,1-3.576-3.576V20.422L44.455,8.124A26.038,26.038,0,0,0,7.631,44.947L56.749,94.065V62.157a3.578,3.578,0,0,1,3.576-3.577h7.867A5.49,5.49,0,0,0,73.676,53.1Zm0,0" transform="translate(0 0)" fill="#fff"/>
      <path id="Path_59" data-name="Path 59" d="M320.294,8.124a26.043,26.043,0,0,0-36.823,0l-12.295,12.3V40.461h4.291a12.636,12.636,0,1,1,0,25.272h-4.291V94.066l49.118-49.118a26.028,26.028,0,0,0,0-36.823Zm0,0" transform="translate(-207.274 0)" fill="#fff"/>
    </g>
  </g>
</svg>
