<?xml version="1.0" encoding="UTF-8" standalone="no"?>
<svg width="527px" height="483px" viewBox="0 0 527 483" version="1.1" xmlns="http://www.w3.org/2000/svg" xmlns:xlink="http://www.w3.org/1999/xlink">
    <!-- Generator: Sketch 49.1 (51147) - http://www.bohemiancoding.com/sketch -->
    <title>Group 2</title>
    <desc>Created with Sketch.</desc>
    <defs>
        <path d="M67.1797216,93.3909351 C136.513055,30.3909351 215.574678,16.501731 304.364592,51.7233228 C393.154506,86.9449145 462.092882,74.8341186 511.179722,15.3909351" id="path-1"></path>
    </defs>
    <g id="Page-1" stroke="none" stroke-width="1" fill="none" fill-rule="evenodd" opacity="0.316522854">
        <g id="Artboard-2-Copy-3" transform="translate(-309.000000, -887.000000)">
            <g id="Group-2" transform="translate(310.000000, 861.000000)">
                <path d="M0.5,151.499574 C168.454768,206.69872 260.454768,266.032195 276.5,329.5 C292.545232,392.967805 230.545232,452.301138 90.5,507.5" id="Line-5" stroke="#079AD3" stroke-width="2" stroke-linecap="square" stroke-dasharray="9"></path>
                <path id="Line-5-decoration-1" d="M90.5,507.5 L101.647771,506.330726 L99.4476051,500.748677 L90.5,507.5 Z" stroke="#079AD3" stroke-width="2" stroke-linecap="square" stroke-dasharray="9"></path>
                <path d="M49,137 C127.97861,149.07289 210.730354,169.899053 297.255233,199.478488 C383.780111,229.057924 459.528367,262.416645 524.5,299.554651" id="Line-3" stroke="#079AD3" stroke-width="2" stroke-linecap="square" stroke-dasharray="10"></path>
                <path id="Line-3-decoration-1" d="M524.5,299.554651 L516.61244,291.590582 L513.63492,296.799648 L524.5,299.554651 Z" stroke="#079AD3" stroke-width="2" stroke-linecap="square" stroke-dasharray="10"></path>
                <mask id="mask-2" fill="white">
                    <use xlink:href="#path-1"></use>
                </mask>
                <use id="Line-2" stroke="#079AD3" stroke-width="2" stroke-linecap="square" stroke-dasharray="9" transform="translate(289.179722, 54.390935) rotate(4.000000) translate(-289.179722, -54.390935) " xlink:href="#path-1"></use>
                <path id="Line-2-decoration-1" d="M511.179722,15.3909351 L501.989697,21.8083688 L506.616171,25.6288063 L511.179722,15.3909351 Z" stroke="#079AD3" stroke-width="2" stroke-linecap="square" stroke-dasharray="9"></path>
            </g>
        </g>
    </g>
</svg>