<?xml version="1.0" encoding="UTF-8" standalone="no"?>
<svg width="43px" height="54px" viewBox="0 0 43 54" version="1.1" xmlns="http://www.w3.org/2000/svg" xmlns:xlink="http://www.w3.org/1999/xlink">
    <!-- Generator: Sketch 49.1 (51147) - http://www.bohemiancoding.com/sketch -->
    <title>medical-doctor-specialist</title>
    <desc>Created with Sketch.</desc>
    <defs></defs>
    <g id="Page-1" stroke="none" stroke-width="1" fill="none" fill-rule="evenodd">
        <g id="Artboard-Copy" transform="translate(-930.000000, -675.000000)" fill-rule="nonzero">
            <g id="medical-doctor-specialist" transform="translate(930.000000, 675.000000)">
                <path d="M16.631445,23.7845304 L11.9934378,23.7845304 C11.4380608,23.7845304 10.9105397,23.7845304 10.4073925,23.8294199 C10.9331726,26.9198895 13.2695862,34.8722376 23.3481987,34.9861878 C23.5135931,34.9499309 23.6807285,34.953384 23.842641,35 C25.5192179,34.996547 33.9560734,34.3439227 36,24.1401934 C34.9728137,23.8967541 33.8115709,23.7845304 32.4971207,23.7845304 L27.6310433,23.7845304 C31.563948,21.7489641 34.2572653,17.7106354 34.2572653,13.031768 C34.2572653,12.6484807 34.2381144,12.2479282 34.2032945,11.8767265 L27.3455203,11.8767265 C28.3500737,10.8390884 29.0395072,9.49758287 29.2501674,8.0093232 L33.1674032,8.0093232 C31.9765635,5.4281768 29.8960761,3.3390884 27.3124414,2.12879834 C26.0241061,0.814917127 24.2274006,0 22.2391858,0 C20.3432436,0 18.6196598,0.744129834 17.3469934,1.95269337 C14.5788134,3.13017956 12.3433775,5.29868785 11.093344,8.01104972 L15.2299451,8.01104972 C15.4423463,9.49930939 16.1300388,10.8425414 17.1363332,11.878453 L10.0539708,11.878453 C10.0191509,12.2496547 10,12.6502072 10,13.0334945 C10,17.7106354 12.6950583,21.7506906 16.631445,23.7845304 Z M22.2391858,1.95787293 C25.0526316,1.95787293 27.3420383,4.22824586 27.3420383,7.02002762 C27.3420383,9.81008287 25.0526316,12.0787293 22.2391858,12.0787293 C19.4239989,12.0787293 17.1345922,9.81180939 17.1345922,7.02002762 C17.1345922,4.22651934 19.4239989,1.95787293 22.2391858,1.95787293 Z" id="Shape" fill="#2CBFE3"></path>
                <path d="M42.9652918,34.802024 C42.9652918,34.802024 43.3418759,27.416308 37.1603439,24.6420844 C34.7672129,36.6933814 24.3564856,37.4209608 22.9560094,37.4384087 C22.9195657,37.5518204 22.8970054,37.6861696 22.8917992,37.8257532 C22.8744451,38.677213 23.6033175,39.7642201 24.949996,40.8896127 C27.3413916,42.8908922 27.8134232,45.7924858 26.1526354,48.2683494 C24.8597546,50.1980924 22.4319154,51.5415843 19.4591573,51.5415843 C18.0274437,51.5415843 16.4707805,51.229266 14.853378,50.5226242 C14.358786,51.0704897 13.6455323,51.4159591 12.8541852,51.4159591 C11.3634676,51.4159591 10.1521511,50.2033267 10.1521511,48.6993137 C10.1521511,47.2040247 11.3617322,45.986158 12.8541852,45.986158 C14.3327549,45.986158 15.5353943,47.1848319 15.5527484,48.6644178 C19.5771652,50.4580668 23.0618694,49.3396534 24.5196142,47.1621496 C25.6077165,45.5325113 25.2988135,43.7597999 23.6883526,42.4110736 C21.7984906,40.8268 20.8683106,39.2495056 20.9255791,37.7245551 C20.92905,37.5954403 20.9429332,37.4698151 20.9602874,37.351169 C10.7369844,36.374084 8.30567439,27.3325579 7.75728469,24 C-0.0485914925,25.8983366 0.0138832836,34.0412935 0,34.8002792 L0.00520623133,54 L43,54 L42.9652918,34.802024 Z" id="Shape" fill="#2CBFE3"></path>
                <circle id="Oval" fill="#3595E3" cx="21.5" cy="7.5" r="2.5"></circle>
            </g>
        </g>
    </g>
</svg>