<?xml version="1.0" encoding="UTF-8" standalone="no"?>
<svg width="254px" height="246px" viewBox="0 0 254 246" version="1.1" xmlns="http://www.w3.org/2000/svg" xmlns:xlink="http://www.w3.org/1999/xlink">
    <!-- Generator: Sketch 49.1 (51147) - http://www.bohemiancoding.com/sketch -->
    <title>Group 7</title>
    <desc>Created with Sketch.</desc>
    <defs></defs>
    <g id="Page-1" stroke="none" stroke-width="1" fill="none" fill-rule="evenodd">
        <g id="Artboard-2-Copy-3" transform="translate(-84.000000, -798.000000)">
            <g id="Group-7" transform="translate(84.000000, 798.000000)">
                <path d="M126,224 C181.78076,224 227,178.78076 227,123 C227,67.2192403 181.78076,22 126,22 C70.2192403,22 25,67.2192403 25,123 C25,178.78076 70.2192403,224 126,224 Z" id="Oval-8" stroke="#979797" stroke-dasharray="16"></path>
                <g id="user-(1)" transform="translate(105.000000, 0.000000)" fill="#0E0A93" fill-rule="nonzero">
                    <path d="M44,22 C44,9.8696 34.1304,0 22,0 C9.8696,0 0,9.8696 0,22 C0,28.4072 2.7552,34.1824 7.1408,38.2064 L7.12,38.2248 L7.8336,38.8264 C7.88,38.8656 7.9304,38.8976 7.9768,38.936 C8.356,39.2504 8.7488,39.5488 9.1488,39.8376 C9.2784,39.9312 9.408,40.0248 9.54,40.116 C9.9672,40.4104 10.4056,40.6896 10.8536,40.9544 C10.9512,41.012 11.0496,41.068 11.148,41.124 C11.6384,41.4032 12.1392,41.6664 12.652,41.908 C12.6896,41.9256 12.728,41.9416 12.7656,41.9592 C14.4368,42.736 16.2208,43.3064 18.0864,43.6432 C18.1352,43.652 18.184,43.6608 18.2336,43.6696 C18.8128,43.7696 19.3984,43.8496 19.9912,43.9032 C20.0632,43.9096 20.1352,43.9136 20.208,43.92 C20.7984,43.9688 21.3952,44 22,44 C22.5992,44 23.1904,43.9688 23.7776,43.9216 C23.852,43.9152 23.9264,43.9112 24.0008,43.9048 C24.5888,43.8512 25.1696,43.7736 25.7432,43.6752 C25.7928,43.6664 25.8432,43.6576 25.8928,43.648 C27.7304,43.3184 29.4888,42.7608 31.1384,42.004 C31.1992,41.976 31.2608,41.9496 31.3216,41.9208 C31.8152,41.6888 32.2976,41.4384 32.7704,41.172 C32.888,41.1056 33.0048,41.0384 33.1216,40.9696 C33.552,40.716 33.9752,40.4512 34.3864,40.1696 C34.5344,40.0688 34.6792,39.9624 34.8256,39.8568 C35.1768,39.604 35.5216,39.3432 35.8568,39.0704 C35.9312,39.0104 36.0112,38.9584 36.084,38.8968 L36.816,38.2856 L36.7944,38.2672 C41.2184,34.2416 44,28.44 44,22 Z M1.6,22 C1.6,10.7512 10.7512,1.6 22,1.6 C33.2488,1.6 42.4,10.7512 42.4,22 C42.4,28.0616 39.74,33.5112 35.5288,37.2504 C35.2936,37.088 35.0568,36.9424 34.8144,36.8208 L28.0408,33.4344 C27.4328,33.1304 27.0552,32.5192 27.0552,31.84 L27.0552,29.4744 C27.212,29.2808 27.3776,29.0616 27.5488,28.8208 C28.4256,27.5824 29.1288,26.2048 29.6416,24.7224 C30.6552,24.2408 31.3096,23.2312 31.3096,22.0912 L31.3096,19.2552 C31.3096,18.5616 31.0552,17.8888 30.6,17.36 L30.6,13.6264 C30.6416,13.2104 30.7888,10.868 29.0936,8.9352 C27.6192,7.252 25.2328,6.4 22,6.4 C18.7672,6.4 16.3808,7.252 14.9064,8.9344 C13.2112,10.8672 13.3584,13.2112 13.4,13.6256 L13.4,17.3592 C12.9456,17.888 12.6904,18.5608 12.6904,19.2544 L12.6904,22.0904 C12.6904,22.9712 13.0856,23.7928 13.7624,24.3472 C14.4104,26.8856 15.744,28.8072 16.2368,29.4584 L16.2368,31.7736 C16.2368,32.4264 15.8808,33.0264 15.3072,33.34 L8.9816,36.7904 C8.78,36.9 8.58,37.028 8.38,37.1712 C4.2208,33.4336 1.6,28.0176 1.6,22 Z" id="Shape"></path>
                </g>
                <g id="credit-card" transform="translate(0.000000, 110.000000)" fill="#0E0A93" fill-rule="nonzero">
                    <path d="M38.1171875,0 L2.8828125,0 C1.29053906,0 0,1.2774878 0,2.85365854 L0,23.1463415 C0,24.7225122 1.29053906,26 2.8828125,26 L38.1171875,26 C39.7094609,26 41,24.7225122 41,23.1463415 L41,2.85365854 C41,1.2774878 39.7094609,0 38.1171875,0 Z M10.890625,20.6097561 C10.890625,20.7850976 10.7474453,20.9268293 10.5703125,20.9268293 L3.5234375,20.9268293 C3.34630469,20.9268293 3.203125,20.7850976 3.203125,20.6097561 L3.203125,18.3902439 C3.203125,18.2149024 3.34630469,18.0731707 3.5234375,18.0731707 L10.5703125,18.0731707 C10.7474453,18.0731707 10.890625,18.2149024 10.890625,18.3902439 L10.890625,20.6097561 Z M10.5703125,12.3658537 L5.4453125,12.3658537 C4.20698438,12.3658537 3.203125,11.3721463 3.203125,10.1463415 L3.203125,7.6097561 C3.203125,6.38395122 4.20698438,5.3902439 5.4453125,5.3902439 L10.5703125,5.3902439 C11.8086406,5.3902439 12.8125,6.38395122 12.8125,7.6097561 L12.8125,10.1463415 C12.8125,11.3721463 11.8086406,12.3658537 10.5703125,12.3658537 Z M19.859375,20.6097561 C19.859375,20.7850976 19.7161953,20.9268293 19.5390625,20.9268293 L12.4921875,20.9268293 C12.3150547,20.9268293 12.171875,20.7850976 12.171875,20.6097561 L12.171875,18.3902439 C12.171875,18.2149024 12.3150547,18.0731707 12.4921875,18.0731707 L19.5390625,18.0731707 C19.7161953,18.0731707 19.859375,18.2149024 19.859375,18.3902439 L19.859375,20.6097561 Z M28.828125,20.6097561 C28.828125,20.7850976 28.6849453,20.9268293 28.5078125,20.9268293 L21.4609375,20.9268293 C21.2838047,20.9268293 21.140625,20.7850976 21.140625,20.6097561 L21.140625,18.3902439 C21.140625,18.2149024 21.2838047,18.0731707 21.4609375,18.0731707 L28.5078125,18.0731707 C28.6849453,18.0731707 28.828125,18.2149024 28.828125,18.3902439 L28.828125,20.6097561 Z M37.796875,20.6097561 C37.796875,20.7850976 37.6536953,20.9268293 37.4765625,20.9268293 L30.4296875,20.9268293 C30.2525547,20.9268293 30.109375,20.7850976 30.109375,20.6097561 L30.109375,18.3902439 C30.109375,18.2149024 30.2525547,18.0731707 30.4296875,18.0731707 L37.4765625,18.0731707 C37.6536953,18.0731707 37.796875,18.2149024 37.796875,18.3902439 L37.796875,20.6097561 Z M34.2414063,12.6829268 C33.2567656,12.6829268 32.3598906,12.3113171 31.6789063,11.7060244 C30.9982422,12.3113171 30.1016875,12.6829268 29.1164063,12.6829268 C26.9972188,12.6829268 25.2726563,10.976122 25.2726563,8.87804878 C25.2726563,6.77997561 26.9972188,5.07317073 29.1164063,5.07317073 C30.1013672,5.07317073 30.9982422,5.44478049 31.6789063,6.05007317 C32.3598906,5.44478049 33.2567656,5.07317073 34.2414063,5.07317073 C36.3609141,5.07317073 38.0851563,6.77997561 38.0851563,8.87804878 C38.0851563,10.976122 36.3612344,12.6829268 34.2414063,12.6829268 Z" id="Shape"></path>
                </g>
                <g id="medical-history" transform="translate(110.000000, 200.000000)" fill="#0E0A93" fill-rule="nonzero">
                    <path d="M3.04368523,46 L30.9563148,46 C32.6172568,46 34,44.7467498 34,43.2066436 L34,9.80692388 C34,8.26643013 32.6172568,7 30.9563148,7 L26.3550296,7 L26.3550296,9.55030418 C26.3617095,9.99299258 26.0076738,10.3593153 25.5593334,10.3740458 L8.3860485,10.3740458 C7.92867044,10.3631918 7.55931033,10.0015208 7.5443787,9.55030418 L7.5443787,7 L3.04368523,7 C1.38274318,7 0,8.26643013 0,9.80692388 L0,43.2066436 C0,44.7467498 1.38274318,46 3.04368523,46 Z M9.25443787,20.3969466 C9.25443787,19.9585222 9.61476051,19.6030534 10.0591716,19.6030534 L14.183432,19.6030534 L14.183432,15.5343511 C14.183432,15.0959267 14.5437546,14.740458 14.9881657,14.740458 L19.0118343,14.740458 C19.4562454,14.740458 19.816568,15.0959267 19.816568,15.5343511 L19.816568,19.6030534 L23.9408284,19.6030534 C24.3852395,19.6030534 24.7455621,19.9585222 24.7455621,20.3969466 L24.7455621,24.3664122 C24.7455621,24.8048366 24.3852395,25.1603053 23.9408284,25.1603053 L19.816568,25.1603053 L19.816568,29.2290076 C19.816568,29.667432 19.4562454,30.0229008 19.0118343,30.0229008 L14.9881657,30.0229008 C14.5437546,30.0229008 14.183432,29.667432 14.183432,29.2290076 L14.183432,25.1603053 L10.0591716,25.1603053 C9.61476051,25.1603053 9.25443787,24.8048366 9.25443787,24.3664122 L9.25443787,20.3969466 Z M9.58214677,34.0916031 L24.4178532,34.0916031 C24.8626571,34.0916031 25.222587,34.4470718 25.222587,34.8854962 C25.222587,35.3239206 24.8626571,35.6793893 24.4178532,35.6793893 L9.58214677,35.6793893 C9.13734288,35.6793893 8.77741304,35.3239206 8.77741304,34.8854962 C8.77741304,34.4470718 9.13734288,34.0916031 9.58214677,34.0916031 Z M6.56439529,38.0610687 L27.4356047,38.0610687 C27.8804086,38.0610687 28.2403384,38.4165374 28.2403384,38.8549618 C28.2403384,39.2933862 27.8804086,39.648855 27.4356047,39.648855 L6.56439529,39.648855 C6.1195914,39.648855 5.75966156,39.2933862 5.75966156,38.8549618 C5.75966156,38.4165374 6.1195914,38.0610687 6.56439529,38.0610687 Z" id="Shape"></path>
                    <path d="M25,2.91764812 L21.1354839,2.91764812 C20.7467742,2.9172805 20.4104838,2.6698541 20.3286291,2.32316298 C20.0092742,0.977575022 18.6076613,1.67326484e-06 16.9955645,1.67326484e-06 L16.9854839,1.67326484e-06 C15.4165322,-0.00146891466 14.0459677,0.966545565 13.6556451,2.35183939 C13.5616935,2.68455998 13.2326613,2.9172805 12.8556451,2.91764812 L9,2.91764812 L9,8 L25,8 L25,2.91764812 Z" id="Shape"></path>
                    <path d="M15.8196721,23.9672131 L15.8196721,28 L18.1803279,28 L18.1803279,23.9672131 C18.1803279,23.5326588 18.5326588,23.1803279 18.9672131,23.1803279 L23,23.1803279 L23,20.8196721 L18.9672131,20.8196721 C18.5326588,20.8196721 18.1803279,20.4673412 18.1803279,20.0327869 L18.1803279,16 L15.8196721,16 L15.8196721,20.0327869 C15.8196721,20.4673412 15.4673412,20.8196721 15.0327869,20.8196721 L11,20.8196721 L11,23.1803279 L15.0327869,23.1803279 C15.4673412,23.1803279 15.8196721,23.5326588 15.8196721,23.9672131 Z" id="Shape"></path>
                </g>
                <g id="siren" transform="translate(205.000000, 100.000000)" fill="#0E0A93" fill-rule="nonzero">
                    <path d="M24.997879,17 C15.6084279,17.0118974 8.00233313,24.7769005 8,34.3529048 L8,38 L42,38 L42,34.3529048 C41.9976669,24.77517 34.3890268,17.0095179 24.997879,17 Z M36.027199,36.6199011 C36.027199,36.9580037 35.7584654,37.2320766 35.4269495,37.2320766 C35.0954336,37.2320766 34.8266999,36.9580037 34.8266999,36.6199011 L34.8266999,33.3362176 C34.8220337,28.3095643 30.8301622,24.234487 25.9014348,24.2249691 C25.5699189,24.2249691 25.3011853,23.9508962 25.3011853,23.6127936 C25.3011853,23.274691 25.5699189,23.000618 25.9014348,23.000618 L25.9014348,23.0049444 C31.4914972,23.0144623 36.0201996,27.6350896 36.027199,33.3362176 L36.027199,36.6199011 Z" id="Shape"></path>
                    <path d="M11.8443647,14.0615863 L4.15764573,6.20153373 C3.92326342,5.96134308 3.50889035,5.93164642 3.23217775,6.13509373 C2.95546514,6.33854105 2.92125298,6.69822302 3.15563528,6.93841366 L10.8423543,14.7984663 C11.0767366,15.0386569 11.4911096,15.0683536 11.7678223,14.8649063 C12.0445349,14.661459 12.078747,14.301777 11.8443647,14.0615863 Z" id="Shape"></path>
                    <path d="M46.7677759,6.13503605 C46.4910081,5.93167561 46.0765523,5.96135959 45.8421232,6.20144767 L38.15851,14.062169 C37.922689,14.2996408 37.9535441,14.6580623 38.227412,14.8625296 C38.3475845,14.952286 38.5011639,15.0010884 38.6596153,14.9999816 C38.8527496,15.0002834 39.0361401,14.9266269 39.1607205,14.7987342 L46.8443337,6.93801295 C47.0787627,6.69792487 47.0445437,6.33839649 46.7677759,6.13503605 Z" id="Shape"></path>
                    <path d="M24.5000063,0 C24.2238614,0 24.0000127,0.26734658 24.0000127,0.597151398 L24.0000127,11.4007385 C23.9980693,11.7293828 24.2195329,11.9976789 24.4947061,12 C24.4970912,12 24.4994763,12 24.5017731,12 C24.7769463,12 25,11.733603 25,11.4049587 L25,0.597151398 C25,0.26734658 24.7761513,0 24.5000063,0 Z" id="Shape"></path>
                    <path d="M45.8123862,39 L3.18761384,39 C1.42709472,39 0,40.3924319 0,42.1101896 L0,42.8898104 C0,44.6075681 1.42709472,46 3.18761384,46 L45.8123862,46 C47.5729053,46 49,44.6075681 49,42.8898104 L49,42.1101896 C49,40.3924319 47.5729053,39 45.8123862,39 Z" id="Shape"></path>
                </g>
            </g>
        </g>
    </g>
</svg>