<?xml version="1.0" encoding="UTF-8" standalone="no"?>
<svg width="74px" height="65px" viewBox="0 0 74 65" version="1.1" xmlns="http://www.w3.org/2000/svg" xmlns:xlink="http://www.w3.org/1999/xlink">
    <!-- Generator: Sketch 49.1 (51147) - http://www.bohemiancoding.com/sketch -->
    <title>chat (2)</title>
    <desc>Created with Sketch.</desc>
    <defs></defs>
    <g id="Page-1" stroke="none" stroke-width="1" fill="none" fill-rule="evenodd">
        <g id="Artboard-Copy" transform="translate(-985.000000, -973.000000)" fill="#0E0A93" fill-rule="nonzero">
            <g id="chat-(2)" transform="translate(985.000000, 973.000000)">
                <path d="M6,6 L6,44 L68,44 L68,6 L6,6 Z M65.6276995,41.6231884 L8.38685446,41.6231884 L8.38685446,8.37681159 L65.6276995,8.37681159 L65.6276995,41.6231884 Z" id="Shape"></path>
                <path d="M68.0141704,0 L5.9712655,0 C2.67978744,0 0,2.68221574 0,5.97667638 L0,44.1982507 C0,47.4927114 2.67978744,50.1749271 5.9712655,50.1749271 L8.3597717,50.1749271 L8.3597717,65 L23.1714229,50.1749271 L68.0287345,50.1749271 C71.3202126,50.1749271 74,47.4927114 74,44.1982507 L74,5.96209913 C73.9854359,2.68221574 71.3056485,0 68.0141704,0 Z M71.5969297,44.1836735 C71.5969297,46.1661808 69.9948829,47.7696793 68.0141704,47.7696793 L22.1810667,47.7696793 L10.7482779,59.212828 L10.7482779,47.7696793 L5.9712655,47.7696793 C3.99055304,47.7696793 2.3885062,46.1661808 2.3885062,44.1836735 L2.3885062,5.96209913 C2.3885062,3.97959184 3.99055304,2.37609329 5.9712655,2.37609329 L68.0141704,2.37609329 C69.9948829,2.37609329 71.5969297,3.97959184 71.5969297,5.96209913 L71.5969297,44.1836735 Z" id="Shape"></path>
                <path d="M57.7605968,15.8698941 C57.0023737,15.4457892 56.069176,15.4750378 55.3401153,15.9283913 L49.3180739,19.7014624 C48.9243811,18.1512859 47.5245846,16.9959657 45.8623262,16.9959657 L45.7602577,16.9959657 C45.1915904,13.6031266 42.2461851,11 38.7029502,11 C36.2095626,11 34.0077993,12.286939 32.7246524,14.2173475 C31.4415056,12.2723147 29.2397423,11 26.7463547,11 C23.2031197,11 20.2577145,13.6031266 19.6890471,16.9959657 L19.5869786,16.9959657 C17.6039335,16.9959657 16,18.6046394 16,20.5935451 L16,34.9692385 C16,36.9581442 17.6039335,38.566818 19.5869786,38.566818 L45.8769074,38.566818 C47.553747,38.566818 48.9389624,37.4114977 49.3326551,35.8613212 L55.3546965,39.6343923 C55.7338081,39.8830055 56.1858257,40 56.6232621,40 C57.0169549,40 57.4252289,39.8976299 57.775178,39.6928896 C58.5334012,39.2687847 59,38.4644478 59,37.6016137 L59,17.9757943 C59,17.0983359 58.5188199,16.293999 57.7605968,15.8698941 Z M39,13 C41.7591463,13 44,15.2408537 44,18 C44,20.7591463 41.7591463,23 39,23 C36.2408537,23 34,20.7591463 34,18 C34,15.2408537 36.2408537,13 39,13 Z M27,13 C29.7591463,13 32,15.2408537 32,18 C32,20.7591463 29.7591463,23 27,23 C24.2408537,23 22,20.7591463 22,18 C22,15.2408537 24.2408537,13 27,13 Z M47,20.7489102 L47,34.2362685 L47,34.7846556 C47,35.4516129 46.4542218,36 45.7904374,36 L19.2095626,36 C18.5457782,36 18,35.4516129 18,34.7846556 L18,20.2153444 C18,19.5483871 18.5457782,19 19.2095626,19 L19.3128179,19 C19.8880977,22.4385353 22.8677518,25.0767219 26.4521872,25.0767219 C28.9745677,25.0767219 31.2019329,23.7724499 32.5,21.8160418 C33.7980671,23.7872711 36.0254323,25.0767219 38.5478128,25.0767219 C42.1322482,25.0767219 45.1119023,22.4385353 45.6871821,19 L45.7904374,19 C46.4542218,19 47,19.5483871 47,20.2153444 L47,20.7489102 Z M56,38 L49,33.4281459 L49,22.5718541 L56,18 L56,38 Z" id="Shape"></path>
            </g>
        </g>
    </g>
</svg>