<?xml version="1.0" encoding="UTF-8" standalone="no"?>
<svg width="56px" height="51px" viewBox="0 0 56 51" version="1.1" xmlns="http://www.w3.org/2000/svg" xmlns:xlink="http://www.w3.org/1999/xlink">
    <!-- Generator: Sketch 49.1 (51147) - http://www.bohemiancoding.com/sketch -->
    <title>first-aid-kit copy</title>
    <desc>Created with Sketch.</desc>
    <defs></defs>
    <g id="Page-1" stroke="none" stroke-width="1" fill="none" fill-rule="evenodd">
        <g id="Artboard-Copy" transform="translate(-302.000000, -676.000000)" fill-rule="nonzero">
            <g id="first-aid-kit-copy" transform="translate(302.000000, 676.000000)">
                <path d="M47,16 L9,16 L9,41 L47,41 L47,16 Z M37.1403003,33.546916 L33.0504691,33.546916 L33.0504691,37.6330896 L22.9490994,37.6330896 L22.9490994,33.546916 L18.8596997,33.546916 L18.8596997,23.4535152 L22.9490994,23.4535152 L22.9490994,19.3669104 L33.0504691,19.3669104 L33.0504691,23.4535152 L37.1403003,23.4535152 L37.1403003,33.546916 Z" id="Shape" fill="#2CBFE3"></path>
                <polygon id="Shape" fill="#086788" points="30.7884444 23 27.2115556 23 27.2115556 27.212 23 27.212 23 30.7884444 27.2115556 30.7884444 27.2115556 35 30.7884444 35 30.7884444 30.7884444 35 30.7884444 35 27.212 30.7884444 27.212"></polygon>
                <path d="M37.0772706,7.18044355 L37.0772706,0 L18.9227294,0 L18.9227294,7.18044355 L0,7.18044355 L0,51 L56,51 L56,7.18044355 L37.0772706,7.18044355 Z M22.2039794,3.29032258 L33.7960206,3.29032258 L33.7960206,7.18044355 L22.2039794,7.18044355 L22.2039794,3.29032258 Z M50.0916138,44.7997984 L5.9083862,44.7997984 L5.9083862,13.3806452 L50.0916138,13.3806452 L50.0916138,44.7997984 Z" id="Shape" fill="#3595E3"></path>
            </g>
        </g>
    </g>
</svg>