<?xml version="1.0" encoding="UTF-8" standalone="no"?>
<svg width="527px" height="530px" viewBox="0 0 527 530" version="1.1" xmlns="http://www.w3.org/2000/svg" xmlns:xlink="http://www.w3.org/1999/xlink">
    <!-- Generator: Sketch 49.1 (51147) - http://www.bohemiancoding.com/sketch -->
    <title>Group 12</title>
    <desc>Created with Sketch.</desc>
    <defs>
        <path d="M67.1797216,93.3909351 C136.513055,30.3909351 215.574678,16.501731 304.364592,51.7233228 C393.154506,86.9449145 462.092882,74.8341186 511.179722,15.3909351" id="path-1"></path>
        <circle id="path-3" cx="32" cy="32" r="32"></circle>
        <filter x="-9.4%" y="-9.4%" width="118.8%" height="118.8%" filterUnits="objectBoundingBox" id="filter-4">
            <feOffset dx="0" dy="0" in="SourceAlpha" result="shadowOffsetOuter1"></feOffset>
            <feGaussianBlur stdDeviation="2" in="shadowOffsetOuter1" result="shadowBlurOuter1"></feGaussianBlur>
            <feColorMatrix values="0 0 0 0 0.603050595   0 0 0 0 0.603050595   0 0 0 0 0.603050595  0 0 0 0.5 0" type="matrix" in="shadowBlurOuter1"></feColorMatrix>
        </filter>
        <circle id="path-5" cx="32" cy="32" r="32"></circle>
        <filter x="-9.4%" y="-9.4%" width="118.8%" height="118.8%" filterUnits="objectBoundingBox" id="filter-6">
            <feOffset dx="0" dy="0" in="SourceAlpha" result="shadowOffsetOuter1"></feOffset>
            <feGaussianBlur stdDeviation="2" in="shadowOffsetOuter1" result="shadowBlurOuter1"></feGaussianBlur>
            <feColorMatrix values="0 0 0 0 0.603050595   0 0 0 0 0.603050595   0 0 0 0 0.603050595  0 0 0 0.5 0" type="matrix" in="shadowBlurOuter1"></feColorMatrix>
        </filter>
        <circle id="path-7" cx="32" cy="32" r="32"></circle>
        <filter x="-9.4%" y="-9.4%" width="118.8%" height="118.8%" filterUnits="objectBoundingBox" id="filter-8">
            <feOffset dx="0" dy="0" in="SourceAlpha" result="shadowOffsetOuter1"></feOffset>
            <feGaussianBlur stdDeviation="2" in="shadowOffsetOuter1" result="shadowBlurOuter1"></feGaussianBlur>
            <feColorMatrix values="0 0 0 0 0.603050595   0 0 0 0 0.603050595   0 0 0 0 0.603050595  0 0 0 0.5 0" type="matrix" in="shadowBlurOuter1"></feColorMatrix>
        </filter>
        <circle id="path-9" cx="32" cy="32" r="32"></circle>
        <filter x="-9.4%" y="-9.4%" width="118.8%" height="118.8%" filterUnits="objectBoundingBox" id="filter-10">
            <feOffset dx="0" dy="0" in="SourceAlpha" result="shadowOffsetOuter1"></feOffset>
            <feGaussianBlur stdDeviation="2" in="shadowOffsetOuter1" result="shadowBlurOuter1"></feGaussianBlur>
            <feColorMatrix values="0 0 0 0 0.603050595   0 0 0 0 0.603050595   0 0 0 0 0.603050595  0 0 0 0.5 0" type="matrix" in="shadowBlurOuter1"></feColorMatrix>
        </filter>
        <circle id="path-11" cx="32" cy="32" r="32"></circle>
        <filter x="-9.4%" y="-9.4%" width="118.8%" height="118.8%" filterUnits="objectBoundingBox" id="filter-12">
            <feOffset dx="0" dy="0" in="SourceAlpha" result="shadowOffsetOuter1"></feOffset>
            <feGaussianBlur stdDeviation="2" in="shadowOffsetOuter1" result="shadowBlurOuter1"></feGaussianBlur>
            <feColorMatrix values="0 0 0 0 0.603050595   0 0 0 0 0.603050595   0 0 0 0 0.603050595  0 0 0 0.5 0" type="matrix" in="shadowBlurOuter1"></feColorMatrix>
        </filter>
        <circle id="path-13" cx="141" cy="62" r="32"></circle>
        <filter x="-9.4%" y="-9.4%" width="118.8%" height="118.8%" filterUnits="objectBoundingBox" id="filter-14">
            <feOffset dx="0" dy="0" in="SourceAlpha" result="shadowOffsetOuter1"></feOffset>
            <feGaussianBlur stdDeviation="2" in="shadowOffsetOuter1" result="shadowBlurOuter1"></feGaussianBlur>
            <feColorMatrix values="0 0 0 0 0.603050595   0 0 0 0 0.603050595   0 0 0 0 0.603050595  0 0 0 0.5 0" type="matrix" in="shadowBlurOuter1"></feColorMatrix>
        </filter>
        <circle id="path-15" cx="222" cy="87" r="32"></circle>
        <filter x="-9.4%" y="-9.4%" width="118.8%" height="118.8%" filterUnits="objectBoundingBox" id="filter-16">
            <feOffset dx="0" dy="0" in="SourceAlpha" result="shadowOffsetOuter1"></feOffset>
            <feGaussianBlur stdDeviation="2" in="shadowOffsetOuter1" result="shadowBlurOuter1"></feGaussianBlur>
            <feColorMatrix values="0 0 0 0 0.603050595   0 0 0 0 0.603050595   0 0 0 0 0.603050595  0 0 0 0.5 0" type="matrix" in="shadowBlurOuter1"></feColorMatrix>
        </filter>
        <circle id="path-17" cx="32" cy="32" r="32"></circle>
        <filter x="-9.4%" y="-9.4%" width="118.8%" height="118.8%" filterUnits="objectBoundingBox" id="filter-18">
            <feOffset dx="0" dy="0" in="SourceAlpha" result="shadowOffsetOuter1"></feOffset>
            <feGaussianBlur stdDeviation="2" in="shadowOffsetOuter1" result="shadowBlurOuter1"></feGaussianBlur>
            <feColorMatrix values="0 0 0 0 0.603050595   0 0 0 0 0.603050595   0 0 0 0 0.603050595  0 0 0 0.5 0" type="matrix" in="shadowBlurOuter1"></feColorMatrix>
        </filter>
    </defs>
    <g id="Page-1" stroke="none" stroke-width="1" fill="none" fill-rule="evenodd">
        <g id="Artboard-2-Copy-3" transform="translate(-309.000000, -840.000000)">
            <g id="Group-12" transform="translate(310.000000, 844.000000)">
                <g id="Group-2" opacity="0.316522854" transform="translate(0.000000, 17.000000)">
                    <path d="M0.5,151.499574 C168.454768,206.69872 260.454768,266.032195 276.5,329.5 C292.545232,392.967805 230.545232,452.301138 90.5,507.5" id="Line-5" stroke="#079AD3" stroke-width="2" stroke-linecap="square" stroke-dasharray="9"></path>
                    <path id="Line-5-decoration-1" d="M90.5,507.5 L101.647771,506.330726 L99.4476051,500.748677 L90.5,507.5 Z" stroke="#079AD3" stroke-width="2" stroke-linecap="square" stroke-dasharray="9"></path>
                    <path d="M49,137 C127.97861,149.07289 210.730354,169.899053 297.255233,199.478488 C383.780111,229.057924 459.528367,262.416645 524.5,299.554651" id="Line-3" stroke="#079AD3" stroke-width="2" stroke-linecap="square" stroke-dasharray="10"></path>
                    <path id="Line-3-decoration-1" d="M524.5,299.554651 L516.61244,291.590582 L513.63492,296.799648 L524.5,299.554651 Z" stroke="#079AD3" stroke-width="2" stroke-linecap="square" stroke-dasharray="10"></path>
                    <mask id="mask-2" fill="white">
                        <use xlink:href="#path-1"></use>
                    </mask>
                    <use id="Line-2" stroke="#079AD3" stroke-width="2" stroke-linecap="square" stroke-dasharray="9" transform="translate(289.179722, 54.390935) rotate(4.000000) translate(-289.179722, -54.390935) " xlink:href="#path-1"></use>
                    <path id="Line-2-decoration-1" d="M511.179722,15.3909351 L501.989697,21.8083688 L506.616171,25.6288063 L511.179722,15.3909351 Z" stroke="#079AD3" stroke-width="2" stroke-linecap="square" stroke-dasharray="9"></path>
                </g>
                <g id="Group-5" transform="translate(371.000000, 43.000000)">
                    <g id="Oval-9-Copy-3">
                        <use fill="black" fill-opacity="1" filter="url(#filter-4)" xlink:href="#path-3"></use>
                        <use fill="#FFFFFF" fill-rule="evenodd" xlink:href="#path-3"></use>
                    </g>
                    <g id="chat-(2)-copy" transform="translate(13.000000, 17.000000)" fill="#2CBFE3" fill-rule="nonzero">
                        <path d="M3,3 L3,23 L36,23 L36,3 L3,3 Z M34.7373239,21.7490465 L4.27042254,21.7490465 L4.27042254,4.25095347 L34.7373239,4.25095347 L34.7373239,21.7490465 Z" id="Shape"></path>
                        <path d="M35.845306,0 L3.1470183,0 C1.41232041,0 0,1.40300516 0,3.12626149 L0,23.119085 C0,24.8423413 1.41232041,26.2453465 3.1470183,26.2453465 L4.40582562,26.2453465 L4.40582562,34 L12.2119661,26.2453465 L35.8529817,26.2453465 C37.5876796,26.2453465 39,24.8423413 39,23.119085 L39,3.11863647 C38.9923243,1.40300516 37.5800039,0 35.845306,0 Z M37.733517,23.11146 C37.733517,24.1484638 36.889195,24.9872169 35.845306,24.9872169 L11.6900216,24.9872169 L5.66463295,30.9728639 L5.66463295,24.9872169 L3.1470183,24.9872169 C2.10312931,24.9872169 1.25880732,24.1484638 1.25880732,23.11146 L1.25880732,3.11863647 C1.25880732,2.08163265 2.10312931,1.24287957 3.1470183,1.24287957 L35.845306,1.24287957 C36.889195,1.24287957 37.733517,2.08163265 37.733517,3.11863647 L37.733517,23.11146 Z" id="Shape"></path>
                        <path d="M31.3370634,7.51891074 C30.9315022,7.29954614 30.4323499,7.31467474 30.0423872,7.54916793 L26.8212954,9.50075643 C26.6107155,8.698941 25.8619871,8.10136157 24.9728722,8.10136157 L24.9182774,8.10136157 C24.6141065,6.34644478 23.0386572,5 21.1434385,5 C19.809766,5 18.6320787,5.66565809 17.9457443,6.66414523 C17.25941,5.6580938 16.0817226,5 14.7480502,5 C12.8528315,5 11.2773822,6.34644478 10.9732113,8.10136157 L10.9186165,8.10136157 C9.85791794,8.10136157 9,8.93343419 9,9.96217852 L9,17.397882 C9,18.4266263 9.85791794,19.2586989 10.9186165,19.2586989 L24.9806714,19.2586989 C25.8775856,19.2586989 26.6185148,18.6611195 26.8290946,17.8593041 L30.0501865,19.8108926 C30.2529671,19.9394856 30.494744,20 30.7287216,20 C30.9393015,20 31.1576806,19.9470499 31.3448627,19.8411498 C31.7504239,19.6217852 32,19.2057489 32,18.7594554 L32,8.60816944 C32,8.15431165 31.7426246,7.73827534 31.3370634,7.51891074 Z M20.8965517,6.5 C22.2095248,6.5 23.2758621,7.67644817 23.2758621,9.125 C23.2758621,10.5735518 22.2095248,11.75 20.8965517,11.75 C19.5835786,11.75 18.5172414,10.5735518 18.5172414,9.125 C18.5172414,7.67644817 19.5835786,6.5 20.8965517,6.5 Z M14.5517241,6.5 C15.8646972,6.5 16.9310345,7.67644817 16.9310345,9.125 C16.9310345,10.5735518 15.8646972,11.75 14.5517241,11.75 C13.2387511,11.75 12.1724138,10.5735518 12.1724138,9.125 C12.1724138,7.67644817 13.2387511,6.5 14.5517241,6.5 Z M25.6551724,10.4258936 L25.6551724,17.5662598 L25.6551724,17.8565824 C25.6551724,18.2096774 25.3715754,18.5 25.0266601,18.5 L11.2147192,18.5 C10.8698039,18.5 10.5862069,18.2096774 10.5862069,17.8565824 L10.5862069,10.1434176 C10.5862069,9.79032258 10.8698039,9.5 11.2147192,9.5 L11.2683727,9.5 C11.5672993,11.320401 13.1155856,12.7170881 14.9781282,12.7170881 C16.2888063,12.7170881 17.4461887,12.0265911 18.1206897,10.9908457 C18.7951907,12.0344377 19.9525731,12.7170881 21.2632511,12.7170881 C23.1257937,12.7170881 24.6740801,11.320401 24.9730066,9.5 L25.0266601,9.5 C25.3715754,9.5 25.6551724,9.79032258 25.6551724,10.1434176 L25.6551724,10.4258936 Z M31.2068966,19.25 L27.2413793,16.8497766 L27.2413793,11.1502234 L31.2068966,8.75 L31.2068966,19.25 Z" id="Shape"></path>
                    </g>
                </g>
                <g id="Group-10" transform="translate(275.000000, 34.000000)">
                    <g id="Oval-9-Copy-2">
                        <use fill="black" fill-opacity="1" filter="url(#filter-6)" xlink:href="#path-5"></use>
                        <use fill="#FFFFFF" fill-rule="evenodd" xlink:href="#path-5"></use>
                    </g>
                    <g id="medical-record-(1)-copy" transform="translate(18.000000, 12.000000)" fill="#31C1E4" fill-rule="nonzero">
                        <path d="M26.0126667,4 L18,4 L18,3.33333333 C17.9978333,1.49333333 16.5066667,0.00216666667 14.6666667,0 L13.3333333,0 C11.4933333,0.00216666667 10.0021667,1.49333333 10,3.33333333 L10,4 L1.98733333,4 C0.89025,4.00108333 0.00108333333,4.89025 0,5.98733333 L0,38.0126667 C0.00108333333,39.10975 0.89025,39.9989167 1.98733333,40 L26.0126667,40 C27.10975,39.9989167 27.9989167,39.10975 28,38.0126667 L28,5.98733333 C27.9989167,4.89025 27.10975,4.00108333 26.0126667,4 Z M11.3333333,3.33333333 C11.3333333,2.22875 12.22875,1.33333333 13.3333333,1.33333333 L14.6666667,1.33333333 C15.77125,1.33333333 16.6666667,2.22875 16.6666667,3.33333333 L16.6666667,4 L11.3333333,4 L11.3333333,3.33333333 Z M19.2126667,5.33333333 C18.9309167,6.13025 18.1785833,6.664 17.3333333,6.66666667 L10.6666667,6.66666667 C9.82216667,6.66316667 9.07083333,6.12958333 8.78933333,5.33333333 L19.2126667,5.33333333 Z M26.6666667,38.0126667 C26.6663333,38.37375 26.3736667,38.6663333 26.0126667,38.6666667 L1.98733333,38.6666667 C1.62625,38.6663333 1.33366667,38.3736667 1.33333333,38.0126667 L1.33333333,5.98733333 C1.33366667,5.62625 1.62633333,5.33366667 1.98733333,5.33333333 L7.4,5.33333333 C7.71891667,6.88425 9.08325,7.998 10.6666667,8 L17.3333333,8 C18.91675,7.998 20.2810833,6.88425 20.6,5.33333333 L26.0133333,5.33333333 C26.3743333,5.33366667 26.667,5.62633333 26.6673333,5.98733333 L26.6666667,38.0126667 Z" id="Shape"></path>
                        <path d="M17.1382353,11.8241289 C16.9715699,11.4711172 16.5653493,11.3275556 16.2310037,11.5035257 C16.0699191,11.5882521 15.9475625,11.7373491 15.8908235,11.9176047 L14.5534412,16.1551729 L13.8005294,13.3753624 C13.6975368,12.9961918 13.3228566,12.7770103 12.9637353,12.8857529 C12.7993529,12.935571 12.6589007,13.0492239 12.5707059,13.2039455 L11.5722353,14.9609686 L11.1169706,10.6362634 C11.0761287,10.2441473 10.7419522,9.96122019 10.3706544,10.0043422 C10.1078456,10.0348759 9.88596324,10.224238 9.80258824,10.4891306 L7.65952941,17.2743823 L6.33094118,14.0017483 C6.22304412,13.7390876 5.9770625,13.5699027 5.70588235,13.5717776 L3,13.5717776 L3,15.0002516 L5.26008824,15.0002516 L7.11361765,19.5670831 C7.22024632,19.8297438 7.46470588,20 7.73529412,20 L7.76370588,20 C8.04427206,19.9875901 8.28847794,19.7934962 8.37726471,19.5121761 L10.1090294,14.0268358 L10.4472647,17.2223322 C10.4884449,17.6143591 10.8227904,17.8970184 11.1941728,17.8535392 C11.4038787,17.8289873 11.5907537,17.7025674 11.6994118,17.5115982 L12.9272059,15.3517455 L13.8519412,18.7686554 C13.9334559,19.0697956 14.1912757,19.2797812 14.4878235,19.2864772 C14.7833566,19.2899591 15.0478566,19.0930083 15.144,18.7979391 L16.6565882,14.0054087 L17.2789412,15.3203191 C17.3934338,15.5615526 17.6268162,15.7140422 17.8823529,15.7145779 L26,15.7145779 L26,14.2861039 L18.3004118,14.2861039 L17.1382353,11.8241289 Z" id="Shape"></path>
                        <rect id="Rectangle-path" x="3" y="23" width="23" height="1"></rect>
                        <rect id="Rectangle-path" x="3" y="26" width="23" height="1"></rect>
                        <rect id="Rectangle-path" x="3" y="29" width="23" height="1"></rect>
                        <rect id="Rectangle-path" x="3" y="31" width="23" height="1"></rect>
                        <rect id="Rectangle-path" x="3" y="34" width="23" height="1"></rect>
                    </g>
                </g>
                <g id="Group-8" transform="translate(95.000000, 13.000000)">
                    <g id="Oval-9">
                        <use fill="black" fill-opacity="1" filter="url(#filter-8)" xlink:href="#path-7"></use>
                        <use fill="#FFFFFF" fill-rule="evenodd" xlink:href="#path-7"></use>
                    </g>
                    <g id="email-(2)" transform="translate(32.500000, 32.500000) rotate(-20.000000) translate(-32.500000, -32.500000) translate(15.000000, 19.000000)" fill="#2CBFE3" fill-rule="nonzero">
                        <path d="M33.25,0 L1.75,0 C0.783535156,0 0,0.78833372 0,1.76087106 L0,25.2391289 C0,26.2115975 0.783466797,27 1.75,27 L33.25,27 C34.2164648,27 35,26.2116663 35,25.2391289 L35,1.76087106 C35,0.788402504 34.2165332,0 33.25,0 Z M33.8333105,25.2391977 C33.8333105,25.5633768 33.5721777,25.8261318 33.25,25.8261318 L1.75,25.8261318 C1.42782227,25.8261318 1.16668945,25.5633768 1.16668945,25.2391977 L1.16668945,1.76087106 C1.16668945,1.43669195 1.42782227,1.17393697 1.75,1.17393697 L33.25,1.17393697 C33.5721777,1.17393697 33.8333105,1.43669195 33.8333105,1.76087106 L33.8333105,25.2391977 Z" id="Shape"></path>
                        <path d="M31.473239,2.00227266 C31.320783,1.98868286 31.1692735,2.03745437 31.0521088,2.1378947 L17.7424615,13.5460814 C17.3132184,13.9142476 16.6866951,13.9142476 16.257452,13.5460814 L2.9479399,2.13782571 C2.79007524,2.00261758 2.57345923,1.96357278 2.37976233,2.03545384 C2.18606544,2.1073349 2.04462952,2.27924239 2.00879728,2.48640057 C1.97296505,2.69355876 2.04814513,2.90444206 2.2060098,3.0396502 L15.5155895,14.447285 C16.3733997,15.1842383 17.6265814,15.1842383 18.4844592,14.447285 L31.7939713,3.03971918 C31.9112036,2.93934784 31.9844907,2.79558571 31.9978094,2.64002737 C32.0111282,2.48446903 31.9633294,2.32987646 31.8648921,2.21032763 C31.7665901,2.09064083 31.625695,2.01586245 31.473239,2.00227266 Z" id="Shape"></path>
                        <path d="M10.5608555,15.014109 C10.3621039,14.9677379 10.154997,15.037501 10.0194695,15.1964287 L2.15973429,24.0028099 C2.01749628,24.1551327 1.96525901,24.3761179 2.0232858,24.5801782 C2.08131259,24.7843074 2.24045863,24.9395199 2.43914446,24.985891 C2.63789609,25.0322621 2.84500304,24.962499 2.98053046,24.8035713 L10.8402657,15.9971901 C10.9825037,15.8448673 11.034741,15.6238821 10.9767142,15.4198218 C10.9186874,15.2157614 10.7596072,15.0604801 10.5608555,15.014109 Z" id="Shape"></path>
                        <path d="M24.9824298,15.1968118 C24.8467057,15.0375741 24.6391317,14.967675 24.4399951,15.0141366 C24.2408585,15.0605981 24.0814701,15.2161823 24.0233309,15.4206407 C23.9651917,15.6251681 24.0175302,15.8465154 24.1600437,15.9991354 L32.0350034,24.8226956 C32.2485759,25.0514188 32.5976747,25.0599666 32.8212008,24.8418593 C33.0447268,24.6237519 33.0608107,24.2589528 32.8573895,24.0203031 L24.9824298,15.1968118 Z" id="Shape"></path>
                    </g>
                </g>
                <g id="Group-9" transform="translate(195.000000, 0.000000)">
                    <g id="Oval-9-Copy">
                        <use fill="black" fill-opacity="1" filter="url(#filter-10)" xlink:href="#path-9"></use>
                        <use fill="#FFFFFF" fill-rule="evenodd" xlink:href="#path-9"></use>
                    </g>
                    <g id="placeholder-(6)" transform="translate(20.000000, 15.000000)" fill="#2CBFE3" fill-rule="nonzero">
                        <path d="M12.5,7 C10.0192143,7 8,9.01921429 8,11.5 C8,13.9807857 10.0192143,16 12.5,16 C14.9807857,16 17,13.9807857 17,11.5 C17,9.01921429 14.9807857,7 12.5,7 Z M12.5,14.7142857 C10.7276429,14.7142857 9.28571429,13.2723571 9.28571429,11.5 C9.28571429,9.72764286 10.7276429,8.28571429 12.5,8.28571429 C14.2723571,8.28571429 15.7142857,9.72764286 15.7142857,11.5 C15.7142857,13.2723571 14.2723571,14.7142857 12.5,14.7142857 Z" id="Shape"></path>
                        <path d="M20.4870393,3.48773673 C18.2203978,1.23874573 15.2065532,0 12.0012143,0 C8.79524957,0 5.78203074,1.23874573 3.51538929,3.48773673 C-0.679336738,7.64917727 -1.20062672,15.4790438 2.38644915,20.2229121 L12.0012143,34 L21.601586,20.2421608 C25.2030553,15.4790438 24.6817653,7.64917727 20.4870393,3.48773673 Z M20.5865412,19.5162993 L12.0012143,31.8180689 L3.40211979,19.4970506 C0.148594417,15.1927973 0.614814152,8.12170133 4.40089388,4.36572493 C6.43098358,2.35144365 9.13005166,1.24185036 12.0012143,1.24185036 C14.8723769,1.24185036 17.571445,2.35144365 19.6021605,4.36572493 C23.3882402,8.12170133 23.8544599,15.1927973 20.5865412,19.5162993 Z" id="Shape"></path>
                    </g>
                </g>
                <g id="Group-11" transform="translate(155.000000, 150.000000)">
                    <g id="Oval-9-Copy-4">
                        <use fill="black" fill-opacity="1" filter="url(#filter-12)" xlink:href="#path-11"></use>
                        <use fill="#FFFFFF" fill-rule="evenodd" xlink:href="#path-11"></use>
                    </g>
                    <g id="Oval-9-Copy-5">
                        <use fill="black" fill-opacity="1" filter="url(#filter-14)" xlink:href="#path-13"></use>
                        <use fill="#FFFFFF" fill-rule="evenodd" xlink:href="#path-13"></use>
                    </g>
                    <g id="Oval-9-Copy-6">
                        <use fill="black" fill-opacity="1" filter="url(#filter-16)" xlink:href="#path-15"></use>
                        <use fill="#FFFFFF" fill-rule="evenodd" xlink:href="#path-15"></use>
                    </g>
                    <g id="Group-6" transform="translate(270.000000, 100.000000)">
                        <g id="Oval-9-Copy-7">
                            <use fill="black" fill-opacity="1" filter="url(#filter-18)" xlink:href="#path-17"></use>
                            <use fill="#FFFFFF" fill-rule="evenodd" xlink:href="#path-17"></use>
                        </g>
                        <g id="chat-(2)-copy-2" transform="translate(12.000000, 18.000000)" fill="#2CBFE3" fill-rule="nonzero">
                            <path d="M3,3 L3,24 L37,24 L37,3 L3,3 Z M35,22 L4,22 L4,4 L35,4 L35,22 Z" id="Shape"></path>
                            <path d="M36.7644165,0 L3.22771108,0 C1.44853375,0 0,1.44427002 0,3.21821036 L0,23.7990581 C0,25.5729984 1.44853375,27.0172684 3.22771108,27.0172684 L4.51879551,27.0172684 L4.51879551,35 L12.5250935,27.0172684 L36.7722889,27.0172684 C38.5514662,27.0172684 40,25.5729984 40,23.7990581 L40,3.21036107 C39.9921275,1.44427002 38.5435938,0 36.7644165,0 Z M38.7010431,23.7912088 C38.7010431,24.8587127 37.8350718,25.722135 36.7644165,25.722135 L11.9897658,25.722135 L5.80987994,31.8838305 L5.80987994,25.722135 L3.22771108,25.722135 C2.1570557,25.722135 1.29108443,24.8587127 1.29108443,23.7912088 L1.29108443,3.21036107 C1.29108443,2.14285714 2.1570557,1.27943485 3.22771108,1.27943485 L36.7644165,1.27943485 C37.8350718,1.27943485 38.7010431,2.14285714 38.7010431,3.21036107 L38.7010431,23.7912088 Z" id="Shape"></path>
                            <path d="M31.3370634,8.68683812 C30.9315022,8.45284922 30.4323499,8.46898638 30.0423872,8.71911246 L26.8212954,10.8008069 C26.6107155,9.94553707 25.8619871,9.30811901 24.9728722,9.30811901 L24.9182774,9.30811901 C24.6141065,7.43620777 23.0386572,6 21.1434385,6 C19.809766,6 18.6320787,6.7100353 17.9457443,7.77508825 C17.25941,6.70196672 16.0817226,6 14.7480502,6 C12.8528315,6 11.2773822,7.43620777 10.9732113,9.30811901 L10.9186165,9.30811901 C9.85791794,9.30811901 9,10.1956631 9,11.2929904 L9,19.2244075 C9,20.3217347 9.85791794,21.2092789 10.9186165,21.2092789 L24.9806714,21.2092789 C25.8775856,21.2092789 26.6185148,20.5718608 26.8290946,19.716591 L30.0501865,21.7982854 C30.2529671,21.9354513 30.494744,22 30.7287216,22 C30.9393015,22 31.1576806,21.9435199 31.3448627,21.8305598 C31.7504239,21.5965709 32,21.1527988 32,20.6767524 L32,9.84871407 C32,9.36459909 31.7426246,8.92082703 31.3370634,8.68683812 Z M21.1356392,7.33131619 C22.5473042,7.33131619 23.6937945,8.51739788 23.6937945,9.9778114 C23.6937945,11.4382249 22.5473042,12.6243066 21.1356392,12.6243066 C19.7239742,12.6243066 18.5774839,11.4382249 18.5774839,9.9778114 C18.5774839,8.51739788 19.7239742,7.33131619 21.1356392,7.33131619 Z M14.7480502,7.33131619 C16.1597152,7.33131619 17.3062055,8.51739788 17.3062055,9.9778114 C17.3062055,11.4382249 16.1597152,12.6243066 14.7480502,12.6243066 C13.3363852,12.6243066 12.1898949,11.4382249 12.1898949,9.9778114 C12.1898949,8.51739788 13.3363852,7.33131619 14.7480502,7.33131619 Z M25.6046117,11.591528 L25.6046117,18.9339385 L25.6046117,19.232476 C25.6046117,19.5955623 25.3160393,19.8940998 24.9650729,19.8940998 L10.9108172,19.8940998 C10.5598508,19.8940998 10.2712784,19.5955623 10.2712784,19.232476 L10.2712784,11.301059 C10.2712784,10.9379728 10.5598508,10.6394352 10.9108172,10.6394352 L10.965412,10.6394352 C11.2695829,12.5113464 12.8450322,13.9475542 14.7402509,13.9475542 C16.0739234,13.9475542 17.2516107,13.2375189 17.9379451,12.172466 C18.6242794,13.2455875 19.8019668,13.9475542 21.1356392,13.9475542 C23.0308579,13.9475542 24.6063072,12.5113464 24.9104781,10.6394352 L24.9650729,10.6394352 C25.3160393,10.6394352 25.6046117,10.9379728 25.6046117,11.301059 L25.6046117,11.591528 Z M30.7209223,20.684821 L26.8836894,18.207766 L26.8836894,12.325769 L30.7209223,9.84871407 L30.7209223,20.684821 Z" id="Shape"></path>
                        </g>
                    </g>
                    <g id="medical-record-(1)-copy-2" transform="translate(127.000000, 42.000000)" fill="#2CBFE3" fill-rule="nonzero">
                        <path d="M26.0126667,4 L18,4 L18,3.33333333 C17.9978333,1.49333333 16.5066667,0.00216666667 14.6666667,0 L13.3333333,0 C11.4933333,0.00216666667 10.0021667,1.49333333 10,3.33333333 L10,4 L1.98733333,4 C0.89025,4.00108333 0.00108333333,4.89025 0,5.98733333 L0,38.0126667 C0.00108333333,39.10975 0.89025,39.9989167 1.98733333,40 L26.0126667,40 C27.10975,39.9989167 27.9989167,39.10975 28,38.0126667 L28,5.98733333 C27.9989167,4.89025 27.10975,4.00108333 26.0126667,4 Z M11.3333333,3.33333333 C11.3333333,2.22875 12.22875,1.33333333 13.3333333,1.33333333 L14.6666667,1.33333333 C15.77125,1.33333333 16.6666667,2.22875 16.6666667,3.33333333 L16.6666667,4 L11.3333333,4 L11.3333333,3.33333333 Z M19.2126667,5.33333333 C18.9309167,6.13025 18.1785833,6.664 17.3333333,6.66666667 L10.6666667,6.66666667 C9.82216667,6.66316667 9.07083333,6.12958333 8.78933333,5.33333333 L19.2126667,5.33333333 Z M26.6666667,38.0126667 C26.6663333,38.37375 26.3736667,38.6663333 26.0126667,38.6666667 L1.98733333,38.6666667 C1.62625,38.6663333 1.33366667,38.3736667 1.33333333,38.0126667 L1.33333333,5.98733333 C1.33366667,5.62625 1.62633333,5.33366667 1.98733333,5.33333333 L7.4,5.33333333 C7.71891667,6.88425 9.08325,7.998 10.6666667,8 L17.3333333,8 C18.91675,7.998 20.2810833,6.88425 20.6,5.33333333 L26.0133333,5.33333333 C26.3743333,5.33366667 26.667,5.62633333 26.6673333,5.98733333 L26.6666667,38.0126667 Z" id="Shape"></path>
                        <path d="M17.1382353,11.8241289 C16.9715699,11.4711172 16.5653493,11.3275556 16.2310037,11.5035257 C16.0699191,11.5882521 15.9475625,11.7373491 15.8908235,11.9176047 L14.5534412,16.1551729 L13.8005294,13.3753624 C13.6975368,12.9961918 13.3228566,12.7770103 12.9637353,12.8857529 C12.7993529,12.935571 12.6589007,13.0492239 12.5707059,13.2039455 L11.5722353,14.9609686 L11.1169706,10.6362634 C11.0761287,10.2441473 10.7419522,9.96122019 10.3706544,10.0043422 C10.1078456,10.0348759 9.88596324,10.224238 9.80258824,10.4891306 L7.65952941,17.2743823 L6.33094118,14.0017483 C6.22304412,13.7390876 5.9770625,13.5699027 5.70588235,13.5717776 L3,13.5717776 L3,15.0002516 L5.26008824,15.0002516 L7.11361765,19.5670831 C7.22024632,19.8297438 7.46470588,20 7.73529412,20 L7.76370588,20 C8.04427206,19.9875901 8.28847794,19.7934962 8.37726471,19.5121761 L10.1090294,14.0268358 L10.4472647,17.2223322 C10.4884449,17.6143591 10.8227904,17.8970184 11.1941728,17.8535392 C11.4038787,17.8289873 11.5907537,17.7025674 11.6994118,17.5115982 L12.9272059,15.3517455 L13.8519412,18.7686554 C13.9334559,19.0697956 14.1912757,19.2797812 14.4878235,19.2864772 C14.7833566,19.2899591 15.0478566,19.0930083 15.144,18.7979391 L16.6565882,14.0054087 L17.2789412,15.3203191 C17.3934338,15.5615526 17.6268162,15.7140422 17.8823529,15.7145779 L26,15.7145779 L26,14.2861039 L18.3004118,14.2861039 L17.1382353,11.8241289 Z" id="Shape"></path>
                        <rect id="Rectangle-path" x="3" y="23" width="23" height="1"></rect>
                        <rect id="Rectangle-path" x="3" y="26" width="23" height="1"></rect>
                        <rect id="Rectangle-path" x="3" y="29" width="23" height="1"></rect>
                        <rect id="Rectangle-path" x="3" y="31" width="23" height="1"></rect>
                        <rect id="Rectangle-path" x="3" y="34" width="23" height="1"></rect>
                    </g>
                    <g id="email-(2)-copy" transform="translate(32.500000, 31.500000) rotate(15.000000) translate(-32.500000, -31.500000) translate(15.000000, 18.000000)" fill="#2CBFE3" fill-rule="nonzero">
                        <path d="M33.25,0 L1.75,0 C0.783535156,0 0,0.78833372 0,1.76087106 L0,25.2391289 C0,26.2115975 0.783466797,27 1.75,27 L33.25,27 C34.2164648,27 35,26.2116663 35,25.2391289 L35,1.76087106 C35,0.788402504 34.2165332,0 33.25,0 Z M33.8333105,25.2391977 C33.8333105,25.5633768 33.5721777,25.8261318 33.25,25.8261318 L1.75,25.8261318 C1.42782227,25.8261318 1.16668945,25.5633768 1.16668945,25.2391977 L1.16668945,1.76087106 C1.16668945,1.43669195 1.42782227,1.17393697 1.75,1.17393697 L33.25,1.17393697 C33.5721777,1.17393697 33.8333105,1.43669195 33.8333105,1.76087106 L33.8333105,25.2391977 Z" id="Shape"></path>
                        <path d="M31.473239,2.00227266 C31.320783,1.98868286 31.1692735,2.03745437 31.0521088,2.1378947 L17.7424615,13.5460814 C17.3132184,13.9142476 16.6866951,13.9142476 16.257452,13.5460814 C15.9712899,13.3006372 11.5347859,9.49788532 2.9479399,2.13782571 C2.79007524,2.00261758 2.57345923,1.96357278 2.37976233,2.03545384 C2.18606544,2.1073349 2.04462952,2.27924239 2.00879728,2.48640057 C1.97296505,2.69355876 2.04814513,2.90444206 2.2060098,3.0396502 L15.5155895,14.447285 C16.3733997,15.1842383 17.6265814,15.1842383 18.4844592,14.447285 L31.7939713,3.03971918 C31.9112036,2.93934784 31.9844907,2.79558571 31.9978094,2.64002737 C32.0111282,2.48446903 31.9633294,2.32987646 31.8648921,2.21032763 C31.7665901,2.09064083 31.625695,2.01586245 31.473239,2.00227266 Z" id="Shape"></path>
                        <path d="M10.5608555,15.014109 C10.3621039,14.9677379 10.154997,15.037501 10.0194695,15.1964287 L2.15973429,24.0028099 C2.01749628,24.1551327 1.96525901,24.3761179 2.0232858,24.5801782 C2.08131259,24.7843074 2.24045863,24.9395199 2.43914446,24.985891 C2.63789609,25.0322621 2.84500304,24.962499 2.98053046,24.8035713 L10.8402657,15.9971901 C10.9825037,15.8448673 11.034741,15.6238821 10.9767142,15.4198218 C10.9186874,15.2157614 10.7596072,15.0604801 10.5608555,15.014109 Z" id="Shape"></path>
                        <path d="M24.9824298,15.1968118 C24.8467057,15.0375741 24.6391317,14.967675 24.4399951,15.0141366 C24.2408585,15.0605981 24.0814701,15.2161823 24.0233309,15.4206407 C23.9651917,15.6251681 24.0175302,15.8465154 24.1600437,15.9991354 L32.0350034,24.8226956 C32.2485759,25.0514188 32.5976747,25.0599666 32.8212008,24.8418593 C33.0447268,24.6237519 33.0608107,24.2589528 32.8573895,24.0203031 L24.9824298,15.1968118 Z" id="Shape"></path>
                    </g>
                    <g id="placeholder-(6)-copy" transform="translate(210.000000, 70.000000)" fill="#2CBFE3" fill-rule="nonzero">
                        <path d="M12.5,7 C10.0192143,7 8,9.01921429 8,11.5 C8,13.9807857 10.0192143,16 12.5,16 C14.9807857,16 17,13.9807857 17,11.5 C17,9.01921429 14.9807857,7 12.5,7 Z M12.5,14.7142857 C10.7276429,14.7142857 9.28571429,13.2723571 9.28571429,11.5 C9.28571429,9.72764286 10.7276429,8.28571429 12.5,8.28571429 C14.2723571,8.28571429 15.7142857,9.72764286 15.7142857,11.5 C15.7142857,13.2723571 14.2723571,14.7142857 12.5,14.7142857 Z" id="Shape"></path>
                        <path d="M20.4870393,3.48773673 C18.2203978,1.23874573 15.2065532,0 12.0012143,0 C8.79524957,0 5.78203074,1.23874573 3.51538929,3.48773673 C-0.679336738,7.64917727 -1.20062672,15.4790438 2.38644915,20.2229121 L12.0012143,34 L21.601586,20.2421608 C25.2030553,15.4790438 24.6817653,7.64917727 20.4870393,3.48773673 Z M20.5865412,19.5162993 L12.0012143,31.8180689 L3.40211979,19.4970506 C0.148594417,15.1927973 0.614814152,8.12170133 4.40089388,4.36572493 C6.43098358,2.35144365 9.13005166,1.24185036 12.0012143,1.24185036 C14.8723769,1.24185036 17.571445,2.35144365 19.6021605,4.36572493 C23.3882402,8.12170133 23.8544599,15.1927973 20.5865412,19.5162993 Z" id="Shape"></path>
                    </g>
                </g>
            </g>
        </g>
    </g>
</svg>