<?xml version="1.0" encoding="UTF-8" standalone="no"?>
<svg width="47px" height="67px" viewBox="0 0 47 67" version="1.1" xmlns="http://www.w3.org/2000/svg" xmlns:xlink="http://www.w3.org/1999/xlink">
    <!-- Generator: Sketch 49.1 (51147) - http://www.bohemiancoding.com/sketch -->
    <title>medical-record (1)</title>
    <desc>Created with Sketch.</desc>
    <defs></defs>
    <g id="Page-1" stroke="none" stroke-width="1" fill="none" fill-rule="evenodd">
        <g id="Artboard-Copy" transform="translate(-236.000000, -972.000000)" fill="#0E0A93" fill-rule="nonzero">
            <g id="medical-record-(1)" transform="translate(236.000000, 972.000000)">
                <path d="M43.664119,6.7 L30.2142857,6.7 L30.2142857,5.58333333 C30.2106488,2.50133333 27.707619,0.00362916667 24.6190476,0 L22.3809524,0 C19.292381,0.00362916667 16.7893512,2.50133333 16.7857143,5.58333333 L16.7857143,6.7 L3.33588095,6.7 C1.49434821,6.70181458 0.00181845238,8.19116875 0,10.0287833 L0,63.6712167 C0.00181845238,65.5088313 1.49434821,66.9981854 3.33588095,67 L43.664119,67 C45.5056518,66.9981854 46.9981815,65.5088313 47,63.6712167 L47,10.0287833 C46.9981815,8.19116875 45.5056518,6.70181458 43.664119,6.7 Z M19.0238095,5.58333333 C19.0238095,3.73315625 20.5268304,2.23333333 22.3809524,2.23333333 L24.6190476,2.23333333 C26.4731696,2.23333333 27.9761905,3.73315625 27.9761905,5.58333333 L27.9761905,6.7 L19.0238095,6.7 L19.0238095,5.58333333 Z M32.2498333,8.93333333 C31.7768958,10.2681687 30.5140506,11.1622 29.0952381,11.1666667 L17.9047619,11.1666667 C16.4872083,11.1608042 15.2260417,10.2670521 14.7535238,8.93333333 L32.2498333,8.93333333 Z M44.7619048,63.6712167 C44.7613452,64.2760312 44.2700833,64.7661083 43.664119,64.7666667 L3.33588095,64.7666667 C2.72977679,64.7661083 2.23865476,64.2758917 2.23809524,63.6712167 L2.23809524,10.0287833 C2.23865476,9.42396875 2.72991667,8.93389167 3.33588095,8.93333333 L12.4214286,8.93333333 C12.956753,11.5311187 15.2468839,13.39665 17.9047619,13.4 L29.0952381,13.4 C31.7531161,13.39665 34.043247,11.5311187 34.5785714,8.93333333 L43.6652381,8.93333333 C44.2712024,8.93389167 44.7624643,9.42410833 44.7630238,10.0287833 L44.7619048,63.6712167 Z" id="Shape"></path>
                <path d="M27.3588235,19.9186062 C27.0834632,19.3537876 26.4123162,19.124089 25.8599191,19.4056412 C25.5937794,19.5412034 25.391625,19.7797585 25.2978824,20.0681674 L23.0882941,26.8482766 L21.8443529,22.4005798 C21.6741912,21.7939069 21.0551544,21.4432165 20.4618235,21.6172047 C20.1902353,21.6969135 19.9581838,21.8787583 19.8124706,22.1263128 L18.1628235,24.9375497 L17.4106471,18.0180215 C17.3431691,17.3906357 16.7910515,16.9379523 16.1776029,17.0069476 C15.7433971,17.0558014 15.3768088,17.3587808 15.2390588,17.782609 L11.6983529,28.6390116 L9.50329412,23.4027972 C9.32502941,22.9825402 8.918625,22.7118443 8.47058824,22.7148441 L4,22.7148441 L4,25.0004026 L7.73405882,25.0004026 L10.7964118,32.3073329 C10.9725809,32.72759 11.3764706,33 11.8235294,33 L11.8704706,33 C12.3340147,32.9801442 12.7374853,32.669594 12.8841765,32.2194818 L15.7453529,23.4429373 L16.3041765,28.5557316 C16.3722132,29.1829745 16.9246103,29.6352294 17.5381985,29.5656627 C17.8846691,29.5263797 18.1934191,29.3241078 18.3729412,29.0185572 L20.4014706,25.5627928 L21.9292941,31.0298486 C22.0639706,31.5116729 22.4899338,31.84765 22.9798824,31.8583636 C23.4681544,31.8639346 23.9051544,31.5488132 24.064,31.0767026 L26.5630588,23.408654 L27.5912941,25.5125105 C27.7804559,25.8984842 28.1660441,26.1424676 28.5882353,26.1433247 L42,26.1433247 L42,23.8577662 L29.2789412,23.8577662 L27.3588235,19.9186062 Z" id="Shape"></path>
                <rect id="Rectangle-path" x="4" y="39" width="38" height="2"></rect>
                <rect id="Rectangle-path" x="4" y="44" width="38" height="2"></rect>
                <rect id="Rectangle-path" x="4" y="48" width="38" height="2"></rect>
                <rect id="Rectangle-path" x="4" y="52" width="38" height="2"></rect>
                <rect id="Rectangle-path" x="4" y="57" width="38" height="2"></rect>
            </g>
        </g>
    </g>
</svg>