<?xml version="1.0" encoding="UTF-8" standalone="no"?>
<svg width="72px" height="69px" viewBox="0 0 72 69" version="1.1" xmlns="http://www.w3.org/2000/svg" xmlns:xlink="http://www.w3.org/1999/xlink">
    <!-- Generator: Sketch 49.1 (51147) - http://www.bohemiancoding.com/sketch -->
    <title>stethoscope</title>
    <desc>Created with Sketch.</desc>
    <defs></defs>
    <g id="Page-1" stroke="none" stroke-width="1" fill="none" fill-rule="evenodd">
        <g id="Artboard-Copy" transform="translate(-604.000000, -973.000000)" fill="#0E0A93" fill-rule="nonzero">
            <g id="stethoscope" transform="translate(604.000000, 973.000000)">
                <path d="M71.9127697,38.6638588 C71.3807281,34.9534877 68.4850236,32.0386707 64.7989815,31.5031174 L64.7989815,29.3071527 C64.7989815,23.2483194 60.2234534,18.3152501 54.5991418,18.3152501 C49.1368277,18.3152501 44.5636996,23.0985396 44.3993022,28.9786035 L44.4689011,28.9786035 L44.3993022,28.9906825 L44.3993022,52.7947951 C44.3993022,60.4045738 38.747391,66.5841972 31.7995002,66.5841972 C24.8516094,66.5841972 19.1996982,60.3961185 19.1996982,52.7947951 L19.1996982,50.7329074 C20.9396709,50.7329074 22.7996416,49.463403 22.7996416,45.9013019 L22.7996416,42.8634299 C30.5011206,40.8812637 35.9994342,34.2245192 35.9994342,26.6775514 L35.9994342,24.159077 L33.5994719,24.159077 L33.5490727,8.43824051 C33.531673,5.52825509 31.4572056,3.04360195 28.6123503,2.52556325 C27.9987099,0.633234744 25.9771917,-0.400124888 24.0971213,0.217716669 C22.2172008,0.835407238 21.1906169,2.8702681 21.8044073,4.76274759 C22.4180476,6.6550761 24.4395659,7.68843573 26.3196363,7.07059417 C27.3262705,6.73978018 28.1358078,5.97744342 28.5307516,4.98847416 C30.0680774,5.42875422 31.1330607,6.83656328 31.1455105,8.44548792 L31.1995096,24.159077 L28.7995473,24.159077 L28.7995473,26.7125805 C28.7038488,30.9141145 25.9054928,34.5652984 21.8924559,35.7247327 C19.7452397,36.4105187 17.4397759,36.4105187 15.2925596,35.7247327 C11.2841726,34.5613727 8.49211652,30.9107928 8.39986797,26.7125805 L8.39986797,24.159077 L4.79992456,24.159077 L4.79992456,8.45635903 C4.80682445,6.82372933 5.8976073,5.39719779 7.46388269,4.97277145 C8.19422121,6.84426365 10.2934382,7.76528845 12.152659,7.03012948 C14.0118798,6.2949705 14.9268654,4.18174703 14.1965269,2.31040581 C13.4661883,0.439064597 11.3668213,-0.482111194 9.50775056,0.253047784 C8.5003664,0.651504253 7.72307861,1.48299337 7.38948386,2.51952374 C4.51357906,3.01415936 2.40791215,5.51949781 2.39996228,8.45635903 L2.39996228,24.159077 L0,24.159077 L0,26.6715119 C0,34.226935 5.50191352,40.8860953 13.1997925,42.8634299 L13.1997925,45.9013019 C13.1997925,49.463403 15.0597633,50.7329074 16.7997359,50.7329074 L16.7997359,52.7947951 C16.7997359,61.7332653 23.5280302,69 31.7995002,69 C40.0709702,69 46.7992644,61.72481 46.7992644,52.7947951 L46.7992644,29.0486618 C46.9192625,24.464676 50.4208075,20.7346766 54.5991418,20.7346766 C58.8998742,20.7346766 62.3990192,24.5806346 62.3990192,29.3107764 L62.3990192,31.5031174 C57.8074414,32.1701809 54.6225415,36.4577779 55.2852311,41.0796615 C55.9479206,45.7015452 60.2074037,48.9074664 64.7989815,48.2404029 C69.3905594,47.5733394 72.5754593,43.2855914 71.9127697,38.6638588 Z M25.1996039,4.83265489 C24.5369143,4.83265489 23.9996228,4.29181704 23.9996228,3.6247535 C23.9996228,2.95768997 24.5369143,2.41685212 25.1996039,2.41685212 C25.8622935,2.41685212 26.3995851,2.95768997 26.3995851,3.6247535 C26.3995851,4.29181704 25.8622935,4.83265489 25.1996039,4.83265489 Z M10.7998303,2.41685212 C11.4625198,2.41685212 11.9998114,2.95768997 11.9998114,3.6247535 C11.9998114,4.29181704 11.4625198,4.83265489 10.7998303,4.83265489 C10.1371407,4.83265489 9.59984911,4.29181704 9.59984911,3.6247535 C9.59984911,2.95768997 10.1371407,2.41685212 10.7998303,2.41685212 Z M2.39996228,26.6715119 L2.39996228,26.5748798 L5.9999057,26.5748798 L5.9999057,26.7125805 C6.08990428,31.9625729 9.55979974,36.5442938 14.5653711,38.0221612 C17.1883798,38.8581799 20.0038356,38.8581799 22.6268444,38.0221612 C27.6348156,36.5462567 31.1078611,31.9643847 31.1995096,26.7125805 L31.1995096,26.5748798 L33.5994719,26.5748798 L33.5994719,26.6715119 C33.5994719,33.3910673 28.4539528,39.3037445 21.3596643,40.7338998 C19.6937905,41.0696963 17.9874173,41.1539475 16.2969439,40.9839353 C15.7404526,40.9295798 15.1872613,40.8453287 14.6397699,40.731484 C7.5454814,39.3037445 2.39996228,33.3910673 2.39996228,26.6715119 Z M16.7997359,48.3171046 C15.7197529,48.3171046 15.5997548,46.6260427 15.5997548,45.9013019 L15.5997548,43.3381351 C15.6957533,43.3502142 15.7941518,43.3550458 15.8913502,43.364709 C16.0113483,43.3779959 16.1313465,43.3876591 16.2513446,43.3985302 C16.8189356,43.4492621 17.3913267,43.4830833 17.9685176,43.4842912 L18.0285166,43.4842912 C18.6045076,43.4842912 19.1756986,43.4492621 19.7396897,43.3985302 C19.8596879,43.3876591 19.9868859,43.3779959 20.1104839,43.364709 C20.2052824,43.3538379 20.3036809,43.3502142 20.3984794,43.3381351 L20.3984794,45.9013019 C20.3984794,46.6260427 20.2784813,48.3171046 19.1984982,48.3171046 L16.7997359,48.3171046 Z M63.5990004,45.9013019 C60.2854025,45.9013019 57.5990947,43.1972636 57.5990947,39.861795 C57.5990947,36.5263263 60.2854025,33.8222881 63.5990004,33.8222881 C66.9125983,33.8222881 69.5989061,36.5263263 69.5989061,39.861795 C69.5950061,43.1957538 66.9109483,45.8973762 63.5990004,45.9013019 Z" id="Shape"></path>
                <path d="M63.5,36 C61.5669792,36 60,37.5669792 60,39.5 C60,41.4330208 61.5669792,43 63.5,43 C65.4330208,43 67,41.4330208 67,39.5 C67,37.5669792 65.4330208,36 63.5,36 Z M63.5,40.6666667 C62.8557083,40.6666667 62.3333333,40.1442917 62.3333333,39.5 C62.3333333,38.8557083 62.8557083,38.3333333 63.5,38.3333333 C64.1442917,38.3333333 64.6666667,38.8557083 64.6666667,39.5 C64.6666667,40.1442917 64.1442917,40.6666667 63.5,40.6666667 Z" id="Shape"></path>
            </g>
        </g>
    </g>
</svg>